<!-- Generated by IcoMoon.io -->
<svg version="1.1" xmlns="http://www.w3.org/2000/svg" width="33" height="32" viewBox="0 0 33 32">
<title>address-page</title>
<path d="M16.028 1.694c0.613-0.006 0.969 0.031 1.556 0.144 0.425 0.087 1.025 0.244 1.331 0.356 0.306 0.106 0.8 0.319 1.094 0.462 0.294 0.15 0.781 0.45 1.087 0.663 0.306 0.219 0.781 0.625 1.056 0.9 0.281 0.275 0.669 0.725 0.875 1 0.2 0.275 0.5 0.737 0.656 1.031s0.394 0.825 0.519 1.188c0.125 0.362 0.281 0.894 0.344 1.188 0.094 0.419 0.119 0.781 0.113 1.688 0 0.931-0.031 1.269-0.131 1.75-0.075 0.325-0.225 0.875-0.331 1.219-0.113 0.344-0.319 0.881-0.469 1.188-0.144 0.306-0.381 0.762-0.531 1-0.144 0.238-0.444 0.663-0.656 0.938-0.219 0.275-1.575 1.863-3.019 3.531s-2.613 3.050-2.6 3.081c0.012 0.025 0.331 0.044 0.712 0.044 0.644 0 0.7 0.012 0.875 0.156 0.1 0.087 0.206 0.231 0.225 0.331 0.019 0.094-0.012 0.275-0.063 0.406-0.063 0.137-0.175 0.269-0.288 0.325-0.156 0.075-0.55 0.094-2.313 0.094s-2.156-0.019-2.313-0.094c-0.113-0.056-0.225-0.188-0.287-0.325-0.050-0.131-0.081-0.313-0.063-0.406 0.019-0.1 0.119-0.244 0.225-0.331 0.175-0.144 0.231-0.156 0.875-0.156 0.375 0 0.7-0.019 0.713-0.044 0.012-0.031-0.381-0.519-1.775-2.144l-4.838 0.031-1.237 3.813c-0.681 2.1-1.237 3.819-1.237 3.831 0 0.006 4.469 0.012 9.938 0.012s9.938-0.019 9.931-0.044c0-0.031-0.556-1.75-2.469-7.613l-2.538-0.063-0.15-0.175c-0.106-0.119-0.15-0.244-0.15-0.419 0-0.137 0.044-0.337 0.094-0.438 0.056-0.119 0.169-0.212 0.294-0.25 0.119-0.038 0.837-0.063 1.644-0.063 1.012 0 1.481 0.025 1.587 0.081 0.081 0.038 0.2 0.144 0.262 0.231s0.788 2.238 1.613 4.781c1.313 4.050 1.488 4.65 1.438 4.831-0.031 0.106-0.15 0.269-0.462 0.506l-22.156 0.006-0.2-0.137c-0.106-0.081-0.237-0.238-0.281-0.344-0.075-0.194-0.044-0.319 0.55-2.156 0.35-1.075 1.037-3.194 1.531-4.706 0.7-2.144 0.931-2.788 1.213-3.063l2.188-0.019c1.206-0.006 2.188-0.025 2.188-0.044s-0.531-0.644-1.175-1.394c-0.644-0.744-1.319-1.538-1.488-1.762-0.175-0.225-0.444-0.619-0.606-0.875-0.156-0.256-0.387-0.681-0.506-0.938s-0.313-0.762-0.438-1.125c-0.119-0.363-0.281-0.95-0.356-1.313-0.119-0.531-0.144-0.863-0.144-1.75-0.006-0.825 0.019-1.225 0.106-1.625 0.063-0.294 0.188-0.756 0.275-1.031s0.244-0.681 0.344-0.906c0.1-0.225 0.287-0.575 0.412-0.781 0.119-0.206 0.369-0.575 0.55-0.813 0.175-0.237 0.563-0.669 0.844-0.956 0.287-0.281 0.75-0.675 1.025-0.875 0.275-0.194 0.75-0.487 1.063-0.65 0.306-0.156 0.813-0.375 1.125-0.487 0.306-0.106 0.887-0.262 1.281-0.344 0.519-0.106 0.944-0.144 1.512-0.15h0.006zM14.359 3.288c-0.206 0.050-0.575 0.169-0.813 0.256-0.244 0.087-0.65 0.275-0.906 0.413s-0.669 0.394-0.906 0.575c-0.244 0.181-0.65 0.544-0.906 0.819-0.262 0.269-0.594 0.675-0.75 0.9-0.15 0.225-0.394 0.656-0.544 0.969-0.144 0.313-0.338 0.819-0.425 1.125s-0.188 0.819-0.225 1.125c-0.044 0.313-0.056 0.844-0.031 1.188 0.019 0.344 0.094 0.881 0.162 1.188s0.2 0.787 0.294 1.063c0.088 0.275 0.256 0.713 0.375 0.969s0.319 0.637 0.438 0.844c0.125 0.206 0.369 0.556 0.544 0.787 0.175 0.225 1.45 1.719 2.831 3.325 1.387 1.606 2.544 2.919 2.581 2.919 0.031 0 1.262-1.394 2.731-3.1 1.475-1.706 2.813-3.3 2.975-3.544 0.169-0.25 0.438-0.731 0.606-1.075 0.163-0.344 0.387-0.894 0.488-1.219 0.106-0.325 0.244-0.831 0.3-1.125 0.081-0.375 0.119-0.8 0.119-1.438-0.006-0.5-0.038-1.075-0.081-1.281s-0.156-0.6-0.244-0.875c-0.087-0.275-0.269-0.725-0.406-1s-0.369-0.669-0.506-0.875c-0.144-0.206-0.469-0.6-0.731-0.869-0.256-0.275-0.694-0.662-0.969-0.869-0.275-0.2-0.756-0.494-1.063-0.638-0.313-0.15-0.731-0.331-0.938-0.4-0.206-0.063-0.587-0.163-0.844-0.219-0.256-0.050-0.781-0.106-1.156-0.125-0.381-0.019-0.9 0-1.156 0.031s-0.637 0.1-0.844 0.156zM16.234 6.838c0.306 0.019 0.7 0.075 0.875 0.131 0.169 0.056 0.481 0.188 0.688 0.3s0.531 0.356 0.725 0.544c0.188 0.188 0.431 0.488 0.531 0.656 0.094 0.175 0.244 0.488 0.319 0.706 0.081 0.213 0.163 0.575 0.181 0.813 0.025 0.244 0.006 0.613-0.038 0.887-0.050 0.3-0.175 0.65-0.331 0.969-0.175 0.35-0.375 0.619-0.663 0.906-0.256 0.25-0.569 0.481-0.819 0.606-0.225 0.113-0.587 0.244-0.813 0.294-0.225 0.056-0.587 0.1-0.813 0.1s-0.588-0.044-0.813-0.1c-0.225-0.050-0.606-0.2-0.844-0.325-0.25-0.131-0.6-0.394-0.819-0.606-0.25-0.25-0.456-0.531-0.606-0.844-0.131-0.256-0.275-0.669-0.325-0.906s-0.094-0.55-0.094-0.688c0-0.137 0.044-0.45 0.094-0.688s0.194-0.644 0.313-0.887c0.15-0.313 0.344-0.581 0.613-0.844 0.219-0.219 0.569-0.481 0.769-0.594s0.581-0.256 0.838-0.331c0.369-0.1 0.588-0.119 1.031-0.1zM15.015 8.481c-0.119 0.069-0.356 0.281-0.519 0.463-0.175 0.2-0.344 0.469-0.406 0.65-0.056 0.175-0.106 0.506-0.106 0.75 0.006 0.344 0.037 0.512 0.169 0.781 0.088 0.188 0.287 0.469 0.438 0.619s0.425 0.35 0.613 0.438c0.287 0.137 0.431 0.162 0.875 0.162 0.438 0 0.594-0.025 0.875-0.156 0.188-0.088 0.469-0.287 0.619-0.438 0.15-0.156 0.35-0.438 0.438-0.625 0.131-0.281 0.156-0.438 0.156-0.844 0-0.381-0.031-0.569-0.137-0.8-0.075-0.162-0.269-0.438-0.438-0.613-0.163-0.175-0.444-0.387-0.637-0.481-0.25-0.119-0.469-0.169-0.781-0.181-0.244-0.012-0.55 0.019-0.688 0.063s-0.35 0.137-0.469 0.213z"></path>
</svg>
