<!-- Generated by IcoMoon.io -->
<svg version="1.1" xmlns="http://www.w3.org/2000/svg" width="33" height="32" viewBox="0 0 33 32">
<title>airplane-page</title>
<path d="M7.383 0.063l0.4 0.119c0.219 0.063 1.319 0.387 4.494 1.319l0.575-0.55c0.419-0.394 0.669-0.588 0.894-0.669 0.238-0.087 0.4-0.106 0.688-0.075 0.269 0.025 0.444 0.087 0.625 0.219 0.137 0.094 0.331 0.287 0.425 0.425 0.131 0.181 0.188 0.344 0.213 0.65 0.031 0.3 0.012 0.481-0.069 0.688-0.056 0.156-0.094 0.281-0.088 0.288 0.012 0.006 0.144 0.050 0.581 0.2l0.563-0.563c0.35-0.35 0.681-0.619 0.875-0.712 0.2-0.094 0.425-0.15 0.625-0.15 0.169 0 0.425 0.056 0.563 0.113 0.137 0.063 0.356 0.225 0.488 0.363 0.137 0.137 0.275 0.375 0.337 0.556 0.050 0.169 0.087 0.425 0.069 0.563-0.012 0.138-0.087 0.369-0.3 0.781l0.325 0.094c0.181 0.050 1.069 0.312 3.606 1.062l0.675-0.681c0.369-0.369 0.981-0.956 1.363-1.3 0.375-0.344 0.938-0.819 1.25-1.050 0.306-0.231 0.756-0.544 1-0.694 0.244-0.144 0.606-0.35 0.813-0.45 0.206-0.106 0.613-0.269 0.906-0.369 0.4-0.131 0.644-0.175 1-0.175 0.381 0.006 0.538 0.038 0.844 0.181 0.206 0.1 0.469 0.287 0.587 0.419 0.119 0.138 0.275 0.369 0.344 0.525 0.1 0.219 0.125 0.413 0.125 0.844 0 0.425-0.031 0.669-0.144 1-0.081 0.244-0.238 0.619-0.35 0.844-0.106 0.225-0.319 0.606-0.462 0.844-0.15 0.237-0.462 0.688-0.694 1s-0.706 0.875-1.050 1.25c-0.344 0.375-0.931 0.994-1.981 2.037l0.456 1.544c0.25 0.85 0.512 1.725 0.7 2.356l0.269-0.119c0.144-0.069 0.375-0.137 0.512-0.15 0.137-0.019 0.387 0.019 0.563 0.069 0.181 0.063 0.419 0.2 0.556 0.338 0.137 0.131 0.3 0.35 0.363 0.488 0.056 0.137 0.113 0.387 0.113 0.563 0 0.2-0.056 0.425-0.15 0.625-0.094 0.194-0.363 0.525-1.275 1.438l0.094 0.281c0.056 0.156 0.1 0.288 0.106 0.3 0.006 0.006 0.131-0.031 0.288-0.087 0.188-0.075 0.406-0.1 0.669-0.081 0.3 0.019 0.438 0.069 0.65 0.212 0.15 0.1 0.35 0.3 0.444 0.438 0.131 0.181 0.194 0.356 0.219 0.625 0.031 0.288 0.013 0.45-0.075 0.688-0.087 0.231-0.269 0.469-1.25 1.475l0.7 2.325c0.387 1.281 0.706 2.394 0.706 2.481 0 0.119-0.194 0.344-0.738 0.887-0.575 0.575-0.775 0.738-0.906 0.738-0.1 0-0.244-0.069-0.35-0.175-0.1-0.094-1.613-2.125-3.356-4.512s-3.188-4.413-3.2-4.5c-0.012-0.094 0.031-0.225 0.106-0.331 0.1-0.125 0.188-0.169 0.35-0.169 0.169 0 0.256 0.044 0.387 0.206 0.1 0.113 1.512 2.025 6.113 8.3l0.6-0.6-2.2-7.406c-1.212-4.075-2.219-7.425-2.238-7.45s-0.419 0.313-0.881 0.744c-0.462 0.431-1.419 1.306-2.125 1.944s-1.331 1.2-1.394 1.256c-0.113 0.094-0.094 0.137 0.425 0.85 0.294 0.412 0.538 0.806 0.538 0.875s-0.056 0.2-0.131 0.294c-0.087 0.131-0.181 0.175-0.331 0.175-0.137 0-0.25-0.050-0.363-0.169-0.087-0.1-0.337-0.419-0.563-0.719-0.337-0.456-0.413-0.531-0.494-0.469-0.050 0.044-0.962 0.838-2.031 1.762-1.063 0.931-2.825 2.444-3.906 3.369-1.081 0.919-1.994 1.706-2.025 1.744-0.037 0.050 0.181 0.7 0.613 1.806 0.363 0.956 0.662 1.813 0.662 1.906 0 0.137-0.169 0.344-0.831 1.006-0.744 0.738-0.85 0.825-1.044 0.825-0.206 0-0.45-0.231-3.894-3.675-3.456-3.456-3.669-3.681-3.669-3.887 0-0.2 0.081-0.3 0.831-1.050 0.656-0.65 0.862-0.825 1-0.825 0.094 0 0.95 0.3 1.9 0.663 1.113 0.431 1.762 0.65 1.813 0.613 0.037-0.031 0.813-0.931 1.719-1.994 0.906-1.069 2.456-2.869 3.444-4 0.987-1.137 1.775-2.081 1.75-2.106-0.031-0.019-2.637-1.925-5.8-4.237s-5.825-4.281-5.925-4.381c-0.106-0.112-0.169-0.244-0.162-0.35 0.006-0.131 0.194-0.356 0.775-0.938l0.763-0.769zM29.133 1.288c-0.212 0.087-0.587 0.275-0.825 0.419-0.244 0.137-0.637 0.394-0.875 0.569-0.244 0.169-0.694 0.519-1 0.781-0.313 0.256-1.050 0.962-1.65 1.563-0.594 0.606-1.75 1.813-2.563 2.688-0.813 0.881-2.087 2.269-2.825 3.094s-1.837 2.063-2.438 2.75c-0.6 0.688-2.094 2.419-3.313 3.844-1.219 1.431-2.725 3.2-3.338 3.931l-1.125 1.337 0.831 0.825c2.069-1.738 3.838-3.244 5.263-4.463s3.156-2.706 3.844-3.313c0.688-0.6 1.925-1.7 2.75-2.438s2.219-2.006 3.094-2.825c0.875-0.813 2.087-1.969 2.688-2.563 0.6-0.6 1.306-1.338 1.569-1.65 0.256-0.306 0.606-0.756 0.781-1 0.169-0.237 0.425-0.631 0.569-0.875 0.144-0.237 0.344-0.65 0.45-0.919s0.212-0.644 0.238-0.844c0.031-0.294 0.012-0.413-0.094-0.656-0.106-0.231-0.194-0.325-0.406-0.419-0.144-0.069-0.375-0.125-0.512-0.119-0.137 0-0.356 0.025-0.488 0.056-0.125 0.031-0.406 0.131-0.625 0.225zM7.021 1.712c11.119 8.144 11.419 8.35 11.512 8.244 0.056-0.063 0.619-0.694 1.256-1.4 0.637-0.7 1.512-1.656 1.944-2.125 0.431-0.463 0.762-0.856 0.744-0.881-0.025-0.019-3.363-1.025-7.419-2.231s-7.388-2.194-7.406-2.194c-0.019-0.006-0.169 0.131-0.331 0.294l-0.3 0.294zM13.402 1.8c0 0.019 0.244 0.113 0.544 0.206l0.55 0.169c0.219-0.269 0.275-0.425 0.281-0.544 0-0.137-0.056-0.25-0.175-0.356-0.1-0.094-0.244-0.163-0.35-0.156-0.119 0-0.269 0.094-0.506 0.319-0.188 0.181-0.344 0.344-0.344 0.363zM17.433 2.675c-0.137 0.138-0.238 0.269-0.219 0.281 0.012 0.019 0.269 0.106 0.563 0.194l0.531 0.156c0.325-0.325 0.375-0.438 0.375-0.6 0-0.169-0.050-0.263-0.175-0.375-0.094-0.081-0.238-0.15-0.313-0.15s-0.225 0.050-0.325 0.119c-0.106 0.063-0.3 0.231-0.438 0.375zM29.096 13.813l-0.131 0.15c0.244 0.825 0.331 1.075 0.344 1.094 0.019 0.019 0.163-0.094 0.319-0.25s0.325-0.356 0.369-0.456c0.050-0.094 0.094-0.225 0.094-0.294s-0.069-0.194-0.144-0.281c-0.075-0.081-0.212-0.169-0.294-0.181-0.087-0.019-0.219-0.012-0.294 0.019-0.075 0.025-0.194 0.119-0.262 0.2zM30.089 17.775c0.262 0.85 0.356 1.094 0.375 1.094 0.012 0.006 0.175-0.15 0.356-0.344 0.231-0.238 0.331-0.394 0.331-0.519 0-0.106-0.063-0.238-0.175-0.344-0.113-0.113-0.238-0.175-0.356-0.169-0.106 0-0.269 0.063-0.363 0.137l-0.169 0.144zM6.371 19.438c1.644 1.644 2.144 2.113 2.169 2.106s0.381-0.425 0.8-0.925c0.412-0.494 0.75-0.919 0.75-0.938 0.006-0.019-0.619-0.269-1.381-0.563-0.763-0.288-1.406-0.538-1.425-0.544-0.025-0.012-0.237 0.181-0.481 0.419l-0.431 0.444zM10.733 23.738c-0.006 0.025 0.463 0.525 1.044 1.106l1.063 1.063 0.875-0.875c-0.813-2.2-1.069-2.844-1.1-2.844s-0.463 0.337-0.963 0.756c-0.494 0.413-0.912 0.769-0.919 0.794zM4.714 3.188c0.056 0 0.175 0.056 0.269 0.125 0.131 0.1 0.169 0.175 0.169 0.362 0 0.225-0.088 0.325-2.106 2.344-1.969 1.969-2.125 2.106-2.331 2.106-0.119 0-0.244-0.019-0.287-0.044-0.037-0.025-0.1-0.119-0.144-0.206s-0.063-0.225-0.038-0.313c0.025-0.088 0.9-1.019 2.025-2.144 1.087-1.094 2.063-2.044 2.163-2.112 0.106-0.063 0.231-0.119 0.281-0.119zM28.877 27.137c0.163 0.012 0.275 0.069 0.356 0.175 0.087 0.119 0.113 0.206 0.081 0.344s-0.6 0.75-2.119 2.269c-2.038 2.038-2.081 2.075-2.325 2.075-0.15 0-0.294-0.044-0.356-0.106-0.075-0.075-0.106-0.181-0.1-0.331 0.019-0.194 0.244-0.438 2.119-2.331 2.087-2.1 2.106-2.113 2.344-2.094zM6.808 5.231c0.069 0.019 0.181 0.088 0.25 0.156 0.075 0.063 0.125 0.2 0.125 0.306 0 0.156-0.2 0.388-1.375 1.563-1.175 1.181-1.4 1.375-1.575 1.388-0.138 0.012-0.244-0.031-0.344-0.125-0.081-0.088-0.144-0.219-0.144-0.331 0-0.156 0.206-0.388 1.344-1.544 0.737-0.744 1.4-1.375 1.469-1.4s0.181-0.031 0.25-0.013zM9.396 6.756c0.088 0.031 0.2 0.131 0.25 0.225 0.050 0.106 0.063 0.244 0.037 0.331s-0.444 0.563-0.925 1.056c-0.488 0.494-0.975 0.938-1.088 0.981-0.15 0.063-0.244 0.075-0.362 0.025-0.081-0.031-0.181-0.119-0.219-0.188-0.031-0.069-0.056-0.2-0.056-0.294 0-0.137 0.194-0.375 0.888-1.112 0.588-0.619 0.963-0.956 1.1-1.006 0.131-0.044 0.269-0.050 0.375-0.019zM25.327 22.563c0.044 0 0.15 0.038 0.238 0.081s0.181 0.15 0.212 0.231c0.031 0.106 0.025 0.225-0.031 0.344-0.044 0.106-0.494 0.606-1.006 1.113-0.769 0.762-0.962 0.919-1.119 0.919-0.1 0.006-0.244-0.044-0.319-0.106s-0.144-0.169-0.15-0.238c-0.006-0.069-0.006-0.175-0.006-0.231 0.006-0.063 0.394-0.506 0.869-0.994s0.944-0.938 1.044-1c0.106-0.063 0.225-0.119 0.269-0.119zM26.933 25.106c0.069 0.019 0.181 0.087 0.25 0.156 0.075 0.063 0.125 0.2 0.125 0.306 0 0.156-0.2 0.387-1.375 1.563-1.163 1.163-1.4 1.375-1.569 1.387-0.125 0.012-0.244-0.031-0.331-0.113s-0.131-0.2-0.131-0.344c0-0.2 0.113-0.325 1.363-1.569 0.75-0.744 1.4-1.369 1.45-1.387 0.056-0.019 0.15-0.019 0.219 0z"></path>
</svg>
