<!-- Generated by IcoMoon.io -->
<svg version="1.1" xmlns="http://www.w3.org/2000/svg" width="32" height="32" viewBox="0 0 32 32">
<title>arrow-rightTEST</title>
<path d="M6.668 14.668c-0.001 0-0.002 0-0.003 0-0.736 0-1.333 0.596-1.333 1.332v0c0.001 0.736 0.597 1.332 1.333 1.332 0.001 0 0.002 0 0.003 0h18.664c0.001 0 0.002 0 0.003 0 0.736 0 1.333-0.596 1.333-1.332v-0c-0.001-0.736-0.597-1.332-1.333-1.332-0.001 0-0.002 0-0.003 0h0z"></path>
<path d="M16 5.332c-0.368 0-0.7 0.15-0.941 0.391v0c-0.242 0.241-0.391 0.575-0.391 0.943s0.149 0.702 0.391 0.943v0l8.391 8.391-8.391 8.391c-0.242 0.241-0.391 0.575-0.391 0.943s0.149 0.702 0.391 0.943v0c0.241 0.24 0.574 0.389 0.941 0.389s0.7-0.149 0.941-0.389l9.336-9.336c0.24-0.241 0.389-0.574 0.389-0.941s-0.149-0.7-0.389-0.941l-9.336-9.336c-0.241-0.241-0.574-0.39-0.941-0.391h-0z"></path>
</svg>
