<!-- Generated by IcoMoon.io -->
<svg version="1.1" xmlns="http://www.w3.org/2000/svg" width="33" height="32" viewBox="0 0 33 32">
<title>bank-page</title>
<path d="M16.326 0.006c0.269-0.006 0.544 0.037 0.719 0.1 0.156 0.056 3.206 1.725 6.781 3.706s6.881 3.813 7.344 4.069c0.462 0.256 0.919 0.525 1.188 0.744v0.925c0 0.675-0.025 1.012-0.1 1.262-0.081 0.262-0.188 0.425-0.456 0.694-0.244 0.244-0.444 0.375-0.663 0.45-0.175 0.056-0.45 0.125-0.925 0.2l-1.6 2.25-0.012 11.5 1.663 2.344h0.613c0.375 0 0.681 0.031 0.806 0.087 0.113 0.044 0.281 0.163 0.375 0.262s0.2 0.256 0.231 0.356c0.038 0.094 0.069 0.606 0.069 1.156 0 0.894-0.013 1.006-0.138 1.262-0.081 0.156-0.25 0.35-0.644 0.619h-30.438l-0.25-0.169c-0.137-0.1-0.313-0.288-0.387-0.425-0.131-0.225-0.144-0.325-0.144-1.256 0-0.575 0.031-1.094 0.069-1.188 0.031-0.1 0.137-0.256 0.231-0.356s0.262-0.219 0.369-0.262c0.131-0.056 0.438-0.087 1.425-0.087l1.662-2.344-0.013-11.5-1.6-2.25-0.369-0.050c-0.2-0.025-0.512-0.113-0.681-0.194-0.188-0.081-0.431-0.275-0.613-0.481-0.162-0.188-0.338-0.463-0.394-0.619-0.063-0.194-0.087-0.569-0.087-1.219-0.006-0.894 0.006-0.944 0.138-1.075 0.081-0.075 1.675-0.981 3.55-2.025 1.944-1.075 3.481-1.888 3.575-1.894 0.1-0.006 0.231 0.050 0.313 0.138 0.081 0.081 0.144 0.219 0.144 0.319 0 0.094-0.044 0.225-0.094 0.281-0.050 0.063-1.237 0.737-2.644 1.513-1.4 0.769-2.544 1.425-2.544 1.462 0 0.044 4.563 0.063 13.563 0.063s13.563-0.019 13.563-0.063c0-0.037-0.4-0.281-0.894-0.55-0.488-0.269-3.444-1.906-12.262-6.794h-0.813l-3.125 1.737c-1.95 1.081-3.188 1.731-3.3 1.731-0.094 0-0.225-0.056-0.294-0.125-0.075-0.075-0.125-0.213-0.125-0.325-0.006-0.119 0.044-0.25 0.106-0.313 0.063-0.056 1.475-0.856 3.144-1.781s3.144-1.725 3.281-1.781c0.137-0.056 0.444-0.1 0.688-0.106zM1.307 9.931c0.012 0.519 0.044 0.65 0.15 0.8 0.075 0.094 0.212 0.231 0.3 0.3 0.169 0.125 0.269 0.125 14.594 0.125h14.425c0.369-0.294 0.519-0.469 0.563-0.575 0.044-0.113 0.081-0.444 0.081-0.738v-0.531h-30.138l0.025 0.619zM4.27 13.019l0.563 0.794h3.281l1.188-1.688c-4.375 0-5.631 0.019-5.619 0.050 0.013 0.025 0.275 0.406 0.588 0.844zM8.801 14.438v11.469l1.656 2.337h11.813l1.656-2.337v-3.844c0.262-0.2 0.375-0.256 0.419-0.256 0.044 0.006 0.15 0.038 0.231 0.081 0.087 0.044 0.188 0.144 0.219 0.219 0.038 0.081 0.069 0.831 0.069 1.831v1.688h2.813v-10.875h-2.813l-0.031 5.569c-0.244 0.194-0.387 0.244-0.469 0.244-0.087 0-0.219-0.063-0.3-0.144l-0.137-0.137v-5.844l-1.656-2.319-11.831 0.006-1.637 2.313zM24.613 13.813h3.281c0.875-1.231 1.131-1.613 1.144-1.637 0.006-0.031-1.25-0.050-2.794-0.050h-2.806l1.175 1.688zM5.051 25.625h2.813v-10.875h-2.813v10.875zM4.263 27.325c-0.3 0.425-0.556 0.8-0.569 0.844-0.013 0.063 0.569 0.081 2.763 0.081 2.188 0 2.781-0.019 2.775-0.081 0-0.044-0.25-0.413-0.55-0.825l-0.544-0.75-3.325-0.038-0.55 0.769zM24.463 26.769c-0.081 0.106-0.337 0.462-0.569 0.775-0.231 0.319-0.419 0.606-0.413 0.644 0 0.044 0.956 0.063 2.781 0.063 2.194 0 2.775-0.019 2.762-0.075-0.012-0.044-0.269-0.425-0.563-0.844l-0.544-0.769h-3.306l-0.15 0.206zM1.313 30.194l0.012 0.844h30.063v-1.813c-27.306-0.031-30.038-0.019-30.056 0.050-0.019 0.044-0.025 0.456-0.019 0.919zM16.576 2.862c0.175 0.019 0.481 0.106 0.681 0.194 0.219 0.1 0.475 0.281 0.631 0.45 0.144 0.15 0.331 0.406 0.406 0.562 0.113 0.206 0.156 0.412 0.175 0.813 0.025 0.438 0 0.594-0.113 0.906-0.1 0.263-0.244 0.475-0.494 0.719-0.244 0.244-0.456 0.394-0.706 0.487-0.244 0.094-0.5 0.138-0.8 0.138-0.294 0-0.55-0.044-0.794-0.138-0.25-0.094-0.469-0.244-0.706-0.487-0.25-0.244-0.394-0.456-0.494-0.719-0.119-0.313-0.137-0.469-0.113-0.906 0.019-0.394 0.063-0.606 0.169-0.813 0.075-0.156 0.256-0.406 0.4-0.556s0.4-0.344 0.569-0.431c0.175-0.087 0.444-0.175 0.594-0.206 0.156-0.025 0.425-0.031 0.594-0.013zM15.532 4.112c-0.1 0.094-0.219 0.263-0.269 0.375s-0.094 0.344-0.094 0.519c0 0.169 0.050 0.4 0.106 0.513 0.050 0.112 0.144 0.256 0.2 0.319s0.206 0.169 0.338 0.237c0.137 0.069 0.363 0.119 0.544 0.119 0.175 0 0.406-0.050 0.519-0.106s0.256-0.144 0.319-0.2c0.063-0.056 0.175-0.213 0.244-0.35 0.094-0.194 0.119-0.344 0.1-0.638-0.019-0.313-0.056-0.425-0.212-0.625-0.106-0.131-0.288-0.288-0.406-0.344-0.119-0.063-0.313-0.125-0.438-0.138-0.119-0.019-0.344 0.006-0.5 0.056-0.15 0.050-0.356 0.169-0.45 0.262zM16.514 14.844c0.587 0.019 0.944 0.063 1.281 0.156 0.262 0.075 0.681 0.238 0.938 0.369 0.256 0.125 0.594 0.325 0.75 0.438 0.156 0.119 0.431 0.356 0.619 0.531 0.181 0.181 0.45 0.494 0.6 0.7s0.35 0.544 0.456 0.75c0.1 0.206 0.244 0.556 0.319 0.781 0.069 0.219 0.156 0.587 0.194 0.813 0.038 0.219 0.063 0.575 0.063 0.781s-0.038 0.619-0.094 0.919c-0.050 0.3-0.169 0.75-0.262 1-0.1 0.25-0.313 0.675-0.488 0.95-0.169 0.275-0.494 0.688-0.719 0.913-0.219 0.225-0.613 0.544-0.875 0.712-0.256 0.175-0.669 0.387-0.919 0.488-0.25 0.094-0.644 0.219-0.875 0.275-0.269 0.063-0.688 0.1-1.144 0.1-0.45 0-0.875-0.038-1.137-0.1-0.231-0.056-0.625-0.181-0.875-0.275-0.25-0.1-0.662-0.313-0.925-0.488-0.256-0.169-0.644-0.481-0.856-0.7-0.219-0.212-0.531-0.606-0.706-0.875s-0.4-0.7-0.5-0.969c-0.1-0.269-0.225-0.731-0.281-1.031-0.050-0.3-0.094-0.712-0.094-0.919s0.031-0.563 0.069-0.781c0.031-0.225 0.125-0.594 0.194-0.813 0.075-0.225 0.219-0.575 0.319-0.781s0.306-0.544 0.45-0.75c0.15-0.206 0.431-0.538 0.637-0.725 0.2-0.194 0.563-0.481 0.8-0.637 0.244-0.156 0.65-0.369 0.906-0.475 0.262-0.1 0.669-0.231 0.906-0.287 0.319-0.069 0.669-0.088 1.25-0.069zM14.389 16.219c-0.238 0.119-0.606 0.35-0.813 0.519s-0.506 0.469-0.675 0.675c-0.162 0.206-0.394 0.569-0.512 0.813-0.113 0.238-0.256 0.606-0.313 0.813-0.050 0.206-0.113 0.613-0.131 0.906-0.031 0.375-0.006 0.681 0.069 1.063 0.063 0.325 0.206 0.744 0.375 1.094 0.15 0.306 0.394 0.7 0.544 0.875s0.419 0.444 0.6 0.594c0.181 0.156 0.519 0.381 0.75 0.512 0.231 0.125 0.644 0.294 0.919 0.369 0.369 0.1 0.675 0.137 1.156 0.137 0.488 0 0.788-0.038 1.144-0.137 0.262-0.075 0.644-0.212 0.844-0.313 0.194-0.1 0.525-0.319 0.731-0.481s0.512-0.456 0.681-0.65c0.163-0.188 0.425-0.6 0.569-0.906 0.15-0.313 0.306-0.719 0.356-0.906 0.044-0.194 0.081-0.656 0.081-1.031 0-0.458-0.038-0.823-0.113-1.094-0.063-0.225-0.206-0.606-0.319-0.844-0.119-0.244-0.35-0.606-0.512-0.813-0.169-0.206-0.475-0.506-0.681-0.675s-0.6-0.413-0.875-0.544c-0.275-0.131-0.7-0.287-0.95-0.344-0.25-0.050-0.7-0.094-1-0.094-0.331 0-0.738 0.050-1.019 0.125-0.256 0.069-0.662 0.219-0.906 0.337zM16.351 16.438c0.137 0 0.269 0.044 0.331 0.113 0.056 0.063 0.119 0.212 0.137 0.344 0.038 0.212 0.063 0.238 0.275 0.269 0.125 0.012 0.363 0.106 0.512 0.206 0.206 0.125 0.331 0.262 0.456 0.512 0.1 0.2 0.175 0.444 0.175 0.594 0 0.144-0.044 0.306-0.113 0.394-0.081 0.113-0.169 0.15-0.331 0.15-0.156 0-0.256-0.044-0.356-0.163-0.081-0.094-0.144-0.244-0.144-0.337s-0.063-0.238-0.137-0.313c-0.081-0.081-0.175-0.144-0.219-0.144-0.056 0-0.081 0.206-0.081 1.631l0.238 0.031c0.125 0.012 0.363 0.106 0.512 0.206 0.206 0.125 0.331 0.262 0.456 0.512 0.156 0.313 0.175 0.4 0.169 1.012 0 0.419-0.031 0.75-0.081 0.875-0.050 0.113-0.169 0.3-0.269 0.419s-0.294 0.262-0.431 0.325c-0.137 0.063-0.325 0.113-0.419 0.113-0.156 0.006-0.175 0.031-0.206 0.256-0.019 0.175-0.081 0.281-0.2 0.375-0.094 0.069-0.212 0.125-0.269 0.125-0.050 0-0.169-0.056-0.262-0.125-0.125-0.094-0.181-0.2-0.206-0.375-0.025-0.231-0.044-0.25-0.219-0.25-0.1 0-0.294-0.056-0.419-0.119-0.131-0.063-0.325-0.225-0.438-0.363-0.113-0.131-0.231-0.337-0.269-0.456-0.031-0.125-0.056-0.319-0.056-0.438 0-0.144 0.050-0.275 0.137-0.363 0.075-0.081 0.213-0.144 0.294-0.144 0.088 0 0.219 0.044 0.3 0.094 0.088 0.063 0.156 0.188 0.175 0.331 0.025 0.131 0.081 0.3 0.125 0.375 0.050 0.075 0.144 0.144 0.213 0.144 0.119 0 0.125-0.044 0.125-1.625h-0.188c-0.1 0-0.294-0.056-0.419-0.119-0.131-0.063-0.319-0.212-0.419-0.331-0.1-0.113-0.219-0.3-0.262-0.413-0.056-0.125-0.088-0.456-0.088-0.875 0-0.613 0.019-0.7 0.175-1.012 0.125-0.25 0.25-0.387 0.45-0.512 0.156-0.1 0.387-0.194 0.519-0.206 0.213-0.031 0.238-0.056 0.275-0.269 0.019-0.131 0.081-0.281 0.131-0.344 0.056-0.063 0.188-0.113 0.319-0.113zM15.407 18.9c0.012 0.45 0.037 0.563 0.137 0.669 0.069 0.069 0.169 0.125 0.219 0.125 0.081 0 0.094-0.137 0.094-0.813 0-0.637-0.019-0.813-0.081-0.813-0.044 0-0.15 0.063-0.231 0.144-0.131 0.131-0.144 0.188-0.137 0.688zM16.982 22.256c0.069 0 0.169-0.069 0.219-0.144 0.069-0.1 0.094-0.3 0.094-0.688 0-0.525-0.006-0.55-0.169-0.675-0.094-0.069-0.194-0.125-0.219-0.125s-0.050 0.369-0.050 0.819c0 0.769 0.006 0.813 0.125 0.813z"></path>
</svg>
