<!-- Generated by IcoMoon.io -->
<svg version="1.1" xmlns="http://www.w3.org/2000/svg" width="32" height="32" viewBox="0 0 32 32">
<title>bookmarkNEW</title>
<path d="M9.724 3.452c-0.998 0-1.956 0.397-2.662 1.103s-1.103 1.664-1.103 2.662v20.077c0 0 0 0.001 0 0.001 0 0.693 0.562 1.255 1.255 1.255 0.274 0 0.528-0.088 0.734-0.237l-0.004 0.003 8.055-5.754 8.055 5.754c0.203 0.146 0.456 0.234 0.73 0.234 0.693 0 1.255-0.562 1.255-1.255 0-0 0-0.001 0-0.001v0-20.077c0-0.998-0.397-1.956-1.103-2.662s-1.664-1.103-2.662-1.103zM9.724 5.96h12.551c0.333 0 0.651 0.132 0.886 0.368s0.368 0.556 0.368 0.89v17.64l-6.801-4.857c-0.202-0.145-0.455-0.233-0.728-0.233s-0.526 0.087-0.732 0.235l0.004-0.003-6.801 4.857v-17.64c0-0.333 0.132-0.654 0.368-0.89s0.553-0.368 0.886-0.368z"></path>
</svg>
