<!-- Generated by IcoMoon.io -->
<svg version="1.1" xmlns="http://www.w3.org/2000/svg" width="32" height="32" viewBox="0 0 32 32">
<title>close</title>
<path d="M23.059 7.059l-16 16c-0.24 0.241-0.389 0.574-0.389 0.941s0.149 0.7 0.389 0.941l-0-0c0.241 0.24 0.574 0.389 0.941 0.389s0.7-0.149 0.941-0.389l16-16c0.24-0.241 0.389-0.574 0.389-0.941s-0.149-0.7-0.389-0.941l0 0c-0.241-0.24-0.574-0.389-0.941-0.389s-0.7 0.149-0.941 0.389l0-0z"></path>
<path d="M7.059 7.059c-0.24 0.241-0.389 0.574-0.389 0.941s0.149 0.7 0.389 0.941l16 16c0.241 0.24 0.574 0.389 0.941 0.389s0.7-0.149 0.941-0.389l-0 0c0.24-0.241 0.389-0.574 0.389-0.941s-0.149-0.7-0.389-0.941l-16-16c-0.241-0.24-0.574-0.389-0.941-0.389s-0.7 0.149-0.941 0.389l0-0z"></path>
</svg>
