<!-- Generated by IcoMoon.io -->
<svg version="1.1" xmlns="http://www.w3.org/2000/svg" width="32" height="32" viewBox="0 0 32 32">
<title>company-page</title>
<path d="M18.719 1.244l0.313 0.331 0.031 5.612h2.925c2.712-0.006 2.931 0 3.2 0.219l0.019 5.219c0.012 5.175 0.012 5.219 0.137 5.206 0.069-0.012 0.319 0.012 0.563 0.050 0.244 0.031 0.587 0.131 0.769 0.212 0.175 0.087 0.481 0.306 0.675 0.488 0.188 0.175 0.413 0.438 0.494 0.575s0.194 0.419 0.25 0.625c0.081 0.269 0.1 0.525 0.081 0.906-0.019 0.406-0.063 0.619-0.2 0.906-0.094 0.206-0.269 0.494-0.387 0.644-0.119 0.144-0.206 0.269-0.2 0.281 0.012 0.012 0.175 0.063 0.363 0.125 0.188 0.056 0.512 0.212 0.719 0.344s0.506 0.381 0.663 0.55c0.156 0.169 0.356 0.431 0.45 0.587 0.087 0.156 0.225 0.45 0.3 0.656 0.094 0.262 0.144 0.6 0.212 1.906h0.356c0.306 0 0.387 0.025 0.675 0.313v1.706c-0.006 1.238-0.025 1.725-0.081 1.8-0.044 0.056-0.137 0.131-0.219 0.169-0.1 0.056-3.781 0.075-14.825 0.075-12.25 0-14.719-0.012-14.863-0.087-0.094-0.044-0.188-0.131-0.219-0.188-0.025-0.056-0.044-0.856-0.044-3.475l0.156-0.156c0.125-0.131 0.206-0.156 0.875-0.156l0.038-0.762c0.031-0.544 0.081-0.881 0.175-1.144 0.075-0.206 0.212-0.5 0.3-0.656 0.094-0.156 0.294-0.419 0.45-0.587s0.456-0.419 0.663-0.55c0.206-0.131 0.531-0.288 0.719-0.344 0.188-0.063 0.35-0.113 0.356-0.125 0.013-0.012-0.075-0.137-0.194-0.281-0.119-0.15-0.294-0.438-0.394-0.644-0.163-0.344-0.175-0.438-0.175-1.094 0-0.681 0.013-0.744 0.2-1.125 0.112-0.231 0.344-0.55 0.531-0.738 0.181-0.188 0.5-0.419 0.706-0.519 0.206-0.094 0.556-0.206 0.781-0.238 0.225-0.038 0.469-0.050 0.688-0.006l0.019-5.637c0.019-4.938 0.037-5.694 0.125-6.050 0.056-0.225 0.156-0.563 0.219-0.75 0.069-0.188 0.213-0.525 0.325-0.75s0.287-0.531 0.394-0.688c0.106-0.156 0.344-0.462 0.537-0.681s0.575-0.569 0.85-0.775c0.275-0.206 0.681-0.462 0.906-0.575s0.588-0.269 0.813-0.344c0.225-0.075 0.675-0.188 1-0.25 0.519-0.1 1-0.113 6.781-0.131zM11 2.544c-0.256 0.1-0.669 0.306-0.906 0.462-0.238 0.163-0.575 0.413-0.744 0.563s-0.444 0.456-0.619 0.681c-0.169 0.225-0.412 0.631-0.55 0.906-0.131 0.275-0.306 0.725-0.381 1-0.138 0.5-0.138 0.513-0.162 6.219l-0.019 5.719c0.419 0.256 0.656 0.462 0.8 0.619 0.15 0.156 0.325 0.394 0.387 0.525 0.063 0.125 0.162 0.387 0.219 0.575s0.1 0.512 0.1 0.719c0 0.206-0.050 0.556-0.119 0.781-0.075 0.244-0.238 0.563-0.406 0.8-0.156 0.212-0.281 0.394-0.275 0.406 0.012 0.006 0.188 0.075 0.387 0.137 0.206 0.069 0.531 0.225 0.719 0.35 0.194 0.125 0.488 0.381 0.656 0.563 0.162 0.188 0.356 0.444 0.419 0.575 0.069 0.125 0.137 0.219 0.162 0.206 0.031-0.012 0.075-0.1 0.1-0.2 0.031-0.1 0.156-0.363 0.281-0.587s0.412-0.6 0.637-0.837c0.225-0.231 0.588-0.538 0.813-0.669s0.575-0.294 0.781-0.363c0.206-0.069 0.45-0.137 0.544-0.156l0.175-0.038c-0.506-0.563-0.731-0.863-0.825-1.038-0.094-0.169-0.213-0.475-0.262-0.681-0.056-0.206-0.1-0.569-0.1-0.813s0.044-0.606 0.1-0.813c0.050-0.206 0.188-0.544 0.294-0.75 0.113-0.206 0.369-0.538 0.575-0.744 0.238-0.231 0.537-0.438 0.813-0.569 0.238-0.119 0.637-0.244 0.875-0.287 0.244-0.037 0.613-0.056 0.831-0.031 0.212 0.019 0.563 0.1 0.775 0.181 0.219 0.075 0.544 0.244 0.719 0.375 0.181 0.125 0.344 0.212 0.363 0.188 0.019-0.031 0.031-3.262 0.031-7.188v-7.144c-5.188 0.006-6.069 0.031-6.344 0.094-0.206 0.044-0.588 0.163-0.844 0.263zM19.063 12.8c0 2.669-0.025 4.775-0.056 4.825-0.038 0.063-0.025 0.188 0.038 0.344 0.050 0.137 0.106 0.488 0.125 0.781 0.019 0.313 0.006 0.675-0.038 0.875-0.044 0.188-0.156 0.519-0.262 0.738-0.1 0.212-0.337 0.556-0.525 0.762l-0.344 0.375c0.269 0.056 0.481 0.119 0.656 0.169 0.169 0.050 0.494 0.2 0.719 0.319 0.225 0.125 0.587 0.4 0.8 0.606 0.219 0.206 0.5 0.531 0.625 0.719s0.281 0.488 0.35 0.656c0.063 0.175 0.144 0.344 0.169 0.375 0.025 0.038 0.1-0.044 0.169-0.188 0.069-0.137 0.262-0.4 0.425-0.587 0.169-0.181 0.462-0.438 0.656-0.563 0.188-0.125 0.512-0.281 0.719-0.35 0.2-0.063 0.375-0.131 0.381-0.137 0.012-0.012-0.113-0.194-0.269-0.406-0.181-0.25-0.331-0.556-0.413-0.831-0.1-0.344-0.125-0.55-0.1-0.938 0.025-0.375 0.075-0.6 0.212-0.906 0.106-0.225 0.3-0.531 0.438-0.681 0.131-0.15 0.363-0.356 0.506-0.45l0.269-0.181v-10.063h-5.25v4.738zM14.906 16.913c-0.137 0.063-0.375 0.244-0.531 0.4s-0.369 0.456-0.469 0.663c-0.169 0.331-0.188 0.438-0.188 0.969 0 0.525 0.019 0.631 0.188 0.988 0.125 0.256 0.306 0.506 0.519 0.706 0.181 0.169 0.463 0.369 0.625 0.444 0.25 0.119 0.4 0.144 0.95 0.144s0.706-0.025 0.956-0.144c0.163-0.075 0.444-0.275 0.625-0.444 0.219-0.206 0.387-0.438 0.506-0.706 0.119-0.256 0.194-0.538 0.212-0.8 0.019-0.225 0-0.55-0.038-0.719-0.044-0.175-0.188-0.494-0.325-0.706-0.137-0.219-0.375-0.481-0.538-0.594-0.156-0.113-0.419-0.256-0.575-0.319-0.163-0.063-0.475-0.125-0.7-0.137-0.231-0.019-0.525 0.006-0.688 0.056-0.156 0.044-0.394 0.131-0.531 0.2zM5.519 18.975c-0.15 0.081-0.338 0.244-0.419 0.356-0.088 0.113-0.213 0.344-0.287 0.519-0.094 0.2-0.138 0.438-0.138 0.688 0 0.256 0.044 0.475 0.144 0.712 0.1 0.219 0.263 0.431 0.463 0.613 0.194 0.169 0.431 0.306 0.625 0.363 0.175 0.050 0.412 0.094 0.531 0.094s0.362-0.044 0.531-0.094c0.175-0.050 0.438-0.188 0.594-0.3 0.162-0.125 0.356-0.356 0.462-0.55 0.125-0.231 0.194-0.462 0.213-0.712s-0.006-0.488-0.069-0.688c-0.056-0.181-0.219-0.45-0.375-0.625-0.169-0.194-0.388-0.369-0.581-0.45-0.169-0.075-0.431-0.144-0.588-0.163s-0.406-0.006-0.563 0.025c-0.156 0.031-0.4 0.125-0.544 0.212zM24.563 19c-0.087 0.063-0.262 0.231-0.394 0.387-0.125 0.15-0.275 0.4-0.325 0.556-0.050 0.15-0.094 0.419-0.094 0.594 0 0.169 0.031 0.406 0.069 0.531 0.038 0.119 0.169 0.356 0.294 0.525 0.144 0.181 0.369 0.375 0.575 0.494 0.244 0.131 0.456 0.194 0.719 0.212 0.281 0.019 0.462-0.006 0.719-0.1 0.188-0.075 0.456-0.225 0.587-0.337s0.319-0.331 0.406-0.481c0.125-0.225 0.163-0.394 0.181-0.781 0.025-0.462 0.006-0.538-0.169-0.894-0.137-0.281-0.275-0.45-0.481-0.594-0.156-0.113-0.375-0.238-0.481-0.275-0.113-0.038-0.325-0.087-0.481-0.106-0.175-0.025-0.413 0-0.625 0.056-0.188 0.056-0.413 0.15-0.5 0.212zM13.425 22.575c-0.181 0.075-0.444 0.212-0.581 0.306s-0.387 0.306-0.55 0.475c-0.181 0.181-0.406 0.512-0.563 0.831l-0.262 0.525-0.031 1.981h9.125l-0.031-1.981c-0.406-0.819-0.65-1.188-0.806-1.35s-0.431-0.394-0.613-0.512c-0.181-0.119-0.512-0.275-0.738-0.356-0.375-0.131-0.525-0.137-2.156-0.156-0.963-0.006-1.912 0.012-2.106 0.044-0.2 0.031-0.506 0.119-0.688 0.194zM4.094 23.656c-0.138 0.081-0.369 0.269-0.525 0.419-0.15 0.15-0.337 0.387-0.413 0.525-0.081 0.137-0.194 0.419-0.244 0.625-0.056 0.206-0.1 0.619-0.1 0.919v0.55h7.313c0-0.656-0.025-1.012-0.063-1.219s-0.131-0.525-0.219-0.706c-0.088-0.181-0.281-0.462-0.431-0.625s-0.438-0.387-0.637-0.494c-0.2-0.106-0.512-0.225-0.694-0.262-0.188-0.044-0.906-0.069-1.656-0.069-0.938 0.006-1.444 0.031-1.706 0.1-0.206 0.050-0.487 0.156-0.625 0.238zM23.194 23.663c-0.181 0.1-0.456 0.319-0.606 0.481s-0.344 0.444-0.431 0.625c-0.081 0.181-0.181 0.5-0.219 0.706-0.031 0.206-0.063 0.563-0.063 0.794v0.425h7.344c-0.063-1.2-0.113-1.512-0.206-1.75-0.075-0.194-0.238-0.475-0.363-0.625-0.125-0.156-0.344-0.375-0.481-0.488-0.144-0.106-0.431-0.262-0.637-0.337-0.344-0.131-0.494-0.144-1.875-0.156-1.038-0.012-1.594 0.006-1.813 0.063-0.169 0.044-0.462 0.163-0.65 0.262zM1.75 29.819h28.5v-2.25h-28.5v2.25zM12.9 4.381c0.569 0 0.713 0.019 0.806 0.106 0.063 0.063 0.113 0.194 0.113 0.3s-0.056 0.237-0.137 0.313c-0.113 0.106-0.219 0.125-0.775 0.125s-0.662-0.019-0.775-0.125c-0.075-0.069-0.137-0.213-0.144-0.313s0.037-0.231 0.106-0.294c0.094-0.1 0.219-0.112 0.806-0.112zM15.713 4.381c0.569 0 0.712 0.019 0.806 0.106 0.063 0.063 0.113 0.194 0.113 0.3s-0.056 0.237-0.137 0.313c-0.106 0.1-0.238 0.125-0.7 0.144-0.319 0.006-0.644-0.013-0.731-0.050-0.088-0.031-0.188-0.131-0.231-0.219s-0.063-0.206-0.037-0.269c0.019-0.063 0.081-0.156 0.131-0.219 0.081-0.094 0.206-0.106 0.787-0.106zM10.125 7.006c0.681 0 0.688 0 0.813 0.169 0.075 0.094 0.131 0.213 0.131 0.269 0 0.050-0.056 0.162-0.125 0.25-0.113 0.144-0.162 0.156-0.762 0.175-0.581 0.019-0.669 0.006-0.819-0.112-0.125-0.088-0.175-0.181-0.175-0.313 0-0.106 0.056-0.244 0.125-0.313 0.113-0.112 0.206-0.125 0.813-0.125zM12.9 7.006c0.569 0 0.713 0.019 0.806 0.106 0.063 0.063 0.113 0.194 0.106 0.3 0 0.1-0.019 0.213-0.044 0.256-0.031 0.037-0.113 0.1-0.188 0.138-0.081 0.037-0.387 0.075-0.688 0.075-0.456 0-0.581-0.019-0.719-0.125-0.119-0.088-0.175-0.194-0.188-0.325-0.006-0.125 0.037-0.244 0.106-0.313 0.094-0.1 0.219-0.112 0.806-0.112zM15.713 7.006c0.569 0 0.712 0.019 0.806 0.106 0.063 0.063 0.113 0.2 0.106 0.313 0 0.15-0.044 0.237-0.169 0.331-0.144 0.106-0.269 0.125-0.719 0.125-0.313 0-0.619-0.037-0.706-0.081s-0.181-0.144-0.219-0.219c-0.031-0.075-0.044-0.188-0.019-0.25 0.019-0.063 0.081-0.156 0.131-0.219 0.081-0.094 0.206-0.106 0.787-0.106zM21.669 9.569c0.456 0 0.825 0.025 0.913 0.069 0.075 0.037 0.156 0.1 0.188 0.137 0.025 0.044 0.044 0.156 0.044 0.262 0 0.1-0.050 0.238-0.113 0.294-0.094 0.1-0.219 0.113-1.012 0.113-0.769-0.006-0.925-0.025-1.019-0.113-0.056-0.063-0.113-0.2-0.113-0.306-0.006-0.15 0.038-0.238 0.169-0.331 0.15-0.113 0.256-0.125 0.944-0.125zM10.125 9.631c0.681 0 0.688 0 0.813 0.169 0.075 0.094 0.131 0.219 0.125 0.281 0 0.063-0.069 0.181-0.15 0.269-0.144 0.144-0.2 0.156-0.769 0.156-0.519 0-0.637-0.019-0.781-0.125-0.125-0.088-0.175-0.181-0.175-0.313 0-0.106 0.056-0.244 0.125-0.313 0.113-0.113 0.206-0.125 0.813-0.125zM12.938 9.631c0.537 0 0.675 0.019 0.769 0.106 0.063 0.063 0.113 0.194 0.113 0.3 0 0.1-0.044 0.244-0.094 0.313-0.075 0.106-0.175 0.125-0.675 0.144-0.319 0.012-0.644 0-0.719-0.019-0.081-0.019-0.188-0.075-0.238-0.125-0.050-0.056-0.094-0.194-0.1-0.313-0.006-0.162 0.025-0.238 0.137-0.313s0.313-0.1 0.806-0.094zM15.7 9.631c0.594 0 0.694 0.012 0.8 0.125 0.069 0.069 0.125 0.206 0.125 0.313 0 0.131-0.050 0.225-0.169 0.313-0.144 0.106-0.269 0.125-0.769 0.125-0.475 0-0.625-0.019-0.744-0.113-0.094-0.069-0.15-0.175-0.156-0.306 0-0.113 0.044-0.25 0.113-0.325 0.106-0.119 0.188-0.131 0.8-0.131zM10.125 12.256c0.681 0 0.688 0 0.813 0.169 0.075 0.094 0.131 0.219 0.125 0.281 0 0.063-0.069 0.181-0.15 0.269-0.144 0.144-0.2 0.156-0.769 0.156-0.519 0-0.637-0.019-0.781-0.125-0.125-0.088-0.175-0.181-0.175-0.313 0-0.106 0.056-0.244 0.125-0.313 0.113-0.113 0.206-0.125 0.813-0.125zM12.906 12.25c0.456 0 0.662 0.025 0.769 0.094 0.1 0.069 0.137 0.156 0.137 0.319 0 0.131-0.044 0.262-0.125 0.344-0.106 0.106-0.206 0.125-0.781 0.125s-0.669-0.019-0.781-0.125c-0.069-0.075-0.125-0.219-0.131-0.344-0.006-0.162 0.025-0.238 0.137-0.313s0.313-0.1 0.775-0.1zM15.725 12.256c0.569 0 0.669 0.012 0.775 0.125 0.069 0.069 0.125 0.206 0.125 0.313 0 0.113-0.056 0.231-0.137 0.313-0.125 0.106-0.231 0.125-0.769 0.125-0.506 0-0.65-0.019-0.775-0.113-0.1-0.075-0.15-0.175-0.156-0.325 0-0.15 0.037-0.244 0.144-0.325 0.119-0.094 0.262-0.113 0.794-0.113zM21.681 12.256c0.781 0 0.931 0.019 1.025 0.106 0.063 0.063 0.113 0.194 0.113 0.3s-0.056 0.238-0.137 0.313c-0.119 0.106-0.219 0.125-0.994 0.125s-0.875-0.012-0.994-0.125c-0.075-0.069-0.137-0.213-0.144-0.313s0.038-0.231 0.106-0.294c0.1-0.1 0.225-0.113 1.025-0.113zM10.107 14.881c0.606 0 0.656 0.006 0.8 0.156 0.088 0.081 0.156 0.213 0.156 0.281s-0.069 0.194-0.15 0.281c-0.144 0.144-0.194 0.15-0.8 0.15-0.581 0-0.656-0.012-0.787-0.137-0.075-0.075-0.144-0.206-0.15-0.294s0.050-0.213 0.137-0.294c0.137-0.137 0.2-0.144 0.794-0.144zM21.969 14.875c0.4 0 0.606 0.031 0.706 0.094 0.094 0.069 0.137 0.156 0.137 0.3 0 0.113-0.019 0.231-0.050 0.275-0.025 0.037-0.106 0.1-0.181 0.137-0.081 0.037-0.356 0.075-0.613 0.075s-0.531-0.037-0.606-0.075c-0.081-0.037-0.163-0.1-0.188-0.137-0.025-0.044-0.050-0.162-0.056-0.269-0.006-0.15 0.031-0.225 0.137-0.3 0.106-0.069 0.306-0.1 0.712-0.1zM10.138 17.506c0.569 0 0.625 0.006 0.769 0.156 0.088 0.081 0.156 0.2 0.156 0.262 0.006 0.063-0.050 0.188-0.125 0.281-0.125 0.169-0.131 0.175-0.813 0.175-0.606 0-0.7-0.019-0.813-0.125-0.069-0.075-0.125-0.212-0.131-0.313 0-0.131 0.044-0.219 0.169-0.313 0.144-0.106 0.262-0.125 0.787-0.125z"></path>
</svg>
