<!-- Generated by IcoMoon.io -->
<svg version="1.1" xmlns="http://www.w3.org/2000/svg" width="33" height="32" viewBox="0 0 33 32">
<title>crypto-page</title>
<path d="M15.362 0.025c0.637 0.013 1.169 0.056 1.469 0.125 0.256 0.056 0.681 0.169 0.938 0.256s0.725 0.281 1.031 0.444c0.306 0.156 0.781 0.444 1.050 0.637 0.275 0.194 0.7 0.569 0.95 0.825 0.381 0.388 0.462 0.506 0.469 0.675 0 0.119-0.050 0.25-0.125 0.325s-0.206 0.125-0.331 0.125c-0.163 0-0.269-0.069-0.575-0.381-0.206-0.212-0.6-0.556-0.875-0.762s-0.781-0.512-1.125-0.675c-0.344-0.163-0.906-0.375-1.25-0.463-0.387-0.1-0.887-0.175-1.313-0.2-0.412-0.019-0.912-0.006-1.25 0.044-0.306 0.038-0.8 0.144-1.094 0.231-0.294 0.081-0.756 0.269-1.031 0.406s-0.644 0.344-0.813 0.456c-0.175 0.119-0.469 0.344-0.662 0.513-0.188 0.163-0.519 0.5-0.731 0.737-0.206 0.244-0.519 0.662-0.681 0.938s-0.394 0.75-0.512 1.063c-0.113 0.306-0.25 0.744-0.3 0.969s-0.106 0.744-0.125 1.156c-0.025 0.469-0.006 0.95 0.044 1.281 0.044 0.294 0.156 0.787 0.256 1.094s0.294 0.787 0.438 1.063c0.137 0.275 0.356 0.644 0.481 0.813 0.125 0.175 0.381 0.475 0.919 1.037l9.406-0.006 0.35-0.394c0.188-0.213 0.475-0.588 0.637-0.825 0.156-0.238 0.381-0.637 0.488-0.875 0.113-0.238 0.275-0.675 0.356-0.969 0.087-0.294 0.188-0.813 0.231-1.156 0.044-0.363 0.056-0.844 0.031-1.156-0.019-0.294-0.081-0.744-0.137-1-0.050-0.256-0.175-0.694-0.275-0.969s-0.181-0.575-0.181-0.675c0-0.094 0.063-0.225 0.144-0.294 0.075-0.069 0.206-0.125 0.294-0.125s0.212 0.050 0.281 0.106c0.069 0.063 0.206 0.313 0.3 0.55 0.087 0.237 0.219 0.65 0.288 0.906 0.063 0.256 0.15 0.75 0.194 1.094 0.044 0.375 0.056 0.862 0.031 1.219-0.019 0.325-0.081 0.819-0.137 1.094-0.050 0.275-0.175 0.738-0.275 1.031s-0.181 0.537-0.181 0.544c0 0.012 1.7 0.019 3.781 0.019 2.9 0 3.819 0.019 3.938 0.075 0.087 0.044 0.188 0.162 0.219 0.269 0.044 0.119 0.063 1.688 0.063 4.144 0 3.119 0.019 3.95 0.081 3.95 0.038 0 0.225 0.044 0.406 0.094 0.212 0.063 0.425 0.188 0.613 0.363 0.163 0.144 0.356 0.394 0.438 0.556 0.131 0.262 0.15 0.387 0.15 1.019 0 0.394-0.019 0.762-0.050 0.819-0.025 0.056-0.131 0.144-0.231 0.194-0.156 0.075-0.219 0.081-0.369 0.006-0.1-0.044-0.206-0.131-0.231-0.194-0.031-0.056-0.056-0.381-0.056-0.719 0-0.356-0.031-0.669-0.081-0.762-0.038-0.081-0.175-0.219-0.512-0.444h-8.063l-0.219 0.15c-0.119 0.075-0.256 0.212-0.3 0.294-0.056 0.119-0.069 0.694-0.044 4.625l0.406 0.406 4.113 0.019c3.856 0.019 4.119 0.012 4.313-0.094 0.113-0.063 0.244-0.206 0.294-0.319 0.063-0.131 0.094-0.4 0.094-0.781-0.006-0.481 0.019-0.6 0.125-0.75 0.094-0.125 0.181-0.169 0.331-0.169 0.119 0 0.256 0.056 0.344 0.144 0.131 0.125 0.138 0.188 0.138 0.869 0 0.625-0.019 0.775-0.131 1-0.075 0.15-0.188 0.344-0.25 0.438-0.069 0.1-0.269 0.256-0.444 0.363-0.181 0.1-0.444 0.2-0.831 0.256l-0.038 1.637c-0.031 1.413-0.056 1.694-0.169 2.044-0.069 0.225-0.225 0.531-0.337 0.688-0.119 0.156-0.35 0.375-0.519 0.488-0.175 0.113-0.494 0.262-0.719 0.325-0.387 0.119-0.669 0.125-6.55 0.125-3.375 0-6.181-0.019-6.238-0.050-0.056-0.025-0.144-0.119-0.188-0.219-0.063-0.125-0.069-0.219-0.025-0.356 0.037-0.1 0.119-0.212 0.188-0.25 0.081-0.038 2.256-0.063 6.144-0.063 5.281 0 6.056-0.012 6.387-0.1 0.206-0.050 0.45-0.15 0.544-0.219 0.1-0.063 0.231-0.231 0.3-0.369s0.15-0.425 0.188-0.644c0.031-0.212 0.063-0.988 0.063-3.044h-3.519c-2 0-3.606-0.025-3.731-0.063-0.119-0.031-0.356-0.15-0.525-0.262-0.206-0.137-0.375-0.319-0.694-0.894v-2.469c0-2.4 0.006-2.475 0.131-2.719 0.075-0.137 0.262-0.369 0.425-0.512 0.188-0.175 0.4-0.3 0.613-0.363 0.281-0.081 0.894-0.094 7.3-0.094v-3.75l-27.594-0.031-0.375-0.188c-0.206-0.1-0.394-0.188-0.419-0.2-0.031-0.012-0.050 3.294-0.050 7.344 0 5.188 0.019 7.431 0.069 7.606 0.044 0.156 0.181 0.363 0.363 0.538 0.175 0.181 0.381 0.319 0.537 0.363 0.175 0.050 2.044 0.069 12.125 0.069l0.144 0.144c0.088 0.081 0.137 0.212 0.137 0.325 0 0.106-0.063 0.25-0.281 0.475l-12.156-0.006-0.419-0.188c-0.269-0.125-0.544-0.313-0.75-0.519-0.194-0.188-0.4-0.481-0.675-1.075v-17.563l0.156-0.344c0.088-0.188 0.287-0.481 0.438-0.65 0.156-0.162 0.394-0.369 0.531-0.45s0.406-0.194 0.594-0.244c0.281-0.075 0.869-0.094 6.25-0.094l-0.15-0.394c-0.081-0.213-0.213-0.656-0.294-0.981-0.119-0.5-0.144-0.762-0.144-1.656-0.006-0.669 0.025-1.225 0.081-1.5 0.044-0.237 0.169-0.688 0.269-1s0.325-0.831 0.494-1.156c0.169-0.325 0.456-0.788 0.637-1.031 0.181-0.237 0.506-0.625 0.731-0.85s0.631-0.575 0.906-0.781c0.275-0.206 0.725-0.488 1-0.631 0.275-0.138 0.756-0.344 1.063-0.45s0.8-0.25 1.094-0.313c0.425-0.1 0.731-0.119 1.531-0.106zM1.518 12.25c-0.169 0.162-0.319 0.387-0.363 0.531-0.038 0.137-0.075 0.331-0.075 0.438 0 0.1 0.031 0.3 0.075 0.438 0.044 0.156 0.181 0.356 0.356 0.531 0.163 0.162 0.394 0.319 0.538 0.363 0.194 0.056 3.419 0.075 13.863 0.075h13.606v-2.813c-6.313 0-7.625 0.019-7.625 0.063 0 0.037-0.137 0.244-0.313 0.469l-0.313 0.406c5.375 0 6.981 0.019 7.038 0.044 0.056 0.031 0.144 0.125 0.188 0.219 0.056 0.113 0.069 0.238 0.044 0.344-0.031 0.088-0.106 0.2-0.175 0.25-0.106 0.069-2.294 0.081-13.081 0.081h-12.95c-0.244-0.244-0.313-0.375-0.313-0.456-0.006-0.075 0.050-0.206 0.119-0.294l0.119-0.156 7.013-0.063-0.656-0.906c-5.331 0.012-6.444 0.037-6.594 0.081-0.119 0.037-0.344 0.2-0.5 0.356zM14.593 2.5c0.106 0 0.238 0.063 0.331 0.156 0.137 0.138 0.156 0.212 0.156 0.969h0.969l0.044-0.45c0.031-0.375 0.063-0.475 0.188-0.569 0.075-0.063 0.219-0.112 0.319-0.106 0.094 0 0.225 0.056 0.294 0.125 0.1 0.1 0.125 0.206 0.125 1l0.363 0.163c0.194 0.087 0.462 0.263 0.6 0.388 0.131 0.125 0.319 0.4 0.419 0.606 0.15 0.306 0.181 0.456 0.181 0.844 0 0.394-0.025 0.525-0.181 0.844-0.1 0.206-0.256 0.444-0.5 0.688l0.244 0.313c0.131 0.169 0.288 0.438 0.344 0.594 0.050 0.156 0.094 0.456 0.094 0.669 0 0.256-0.050 0.525-0.137 0.75s-0.25 0.469-0.425 0.65c-0.163 0.162-0.438 0.344-1 0.588v0.45c0 0.425-0.012 0.463-0.169 0.581-0.1 0.075-0.225 0.131-0.281 0.125-0.063 0-0.188-0.069-0.281-0.15-0.156-0.131-0.175-0.206-0.206-0.975h-1v0.344c0 0.188-0.031 0.406-0.063 0.481-0.037 0.081-0.131 0.181-0.219 0.219-0.088 0.044-0.2 0.081-0.25 0.081s-0.162-0.069-0.25-0.156c-0.137-0.137-0.156-0.213-0.156-0.969h-0.938c-0.919 0-0.944-0.006-1.094-0.156-0.088-0.088-0.156-0.225-0.156-0.313s0.069-0.225 0.156-0.313c0.125-0.131 0.213-0.156 0.844-0.156v-5.25h-0.231c-0.131 0-0.319-0.025-0.425-0.063-0.1-0.031-0.225-0.131-0.262-0.219-0.044-0.088-0.081-0.194-0.081-0.237-0.006-0.037 0.050-0.15 0.25-0.419l1.906-0.031 0.031-0.456c0.025-0.362 0.056-0.481 0.156-0.55 0.069-0.050 0.2-0.087 0.294-0.087zM13.893 6.688l3.106-0.031c0.35-0.269 0.5-0.431 0.55-0.531 0.050-0.106 0.094-0.338 0.094-0.519 0-0.237-0.038-0.381-0.137-0.537-0.081-0.119-0.225-0.275-0.319-0.344-0.169-0.125-0.269-0.131-1.731-0.15l-1.556-0.019-0.006 2.131zM13.893 9.813c2.831 0 2.919-0.006 3.181-0.144 0.15-0.075 0.331-0.219 0.406-0.325 0.075-0.113 0.137-0.319 0.15-0.531 0.021-0.229-0.002-0.406-0.069-0.531-0.050-0.1-0.175-0.262-0.275-0.35-0.094-0.088-0.275-0.194-0.394-0.237-0.137-0.044-0.725-0.069-1.613-0.069h-1.387v2.187zM24.956 21.313c0.188 0 0.45 0.031 0.575 0.063 0.131 0.038 0.356 0.156 0.5 0.269 0.15 0.113 0.35 0.331 0.444 0.488 0.137 0.219 0.181 0.375 0.212 0.744 0.025 0.363 0.006 0.531-0.081 0.75-0.063 0.156-0.212 0.394-0.337 0.531-0.131 0.137-0.381 0.319-0.569 0.4-0.231 0.1-0.456 0.15-0.712 0.15-0.244 0-0.475-0.044-0.656-0.125-0.156-0.069-0.394-0.238-0.525-0.369-0.137-0.131-0.306-0.369-0.375-0.525-0.081-0.194-0.119-0.406-0.119-0.688 0.006-0.225 0.050-0.512 0.106-0.637 0.056-0.131 0.206-0.356 0.331-0.5 0.131-0.137 0.375-0.325 0.55-0.4 0.208-0.1 0.427-0.15 0.656-0.15zM24.274 22.8c-0.038 0.144-0.038 0.3 0 0.419 0.031 0.106 0.119 0.25 0.2 0.331 0.075 0.081 0.238 0.169 0.356 0.2 0.146 0.038 0.292 0.031 0.438-0.019 0.125-0.044 0.275-0.163 0.356-0.294 0.081-0.119 0.144-0.313 0.144-0.419 0-0.113-0.044-0.288-0.094-0.394-0.050-0.1-0.181-0.231-0.281-0.281-0.106-0.050-0.3-0.094-0.431-0.094-0.169 0-0.306 0.050-0.438 0.156-0.119 0.094-0.219 0.25-0.25 0.394z"></path>
</svg>
