<!-- Generated by IcoMoon.io -->
<svg version="1.1" xmlns="http://www.w3.org/2000/svg" width="32" height="32" viewBox="0 0 32 32">
<title>download-page</title>
<path d="M4 18.668c-0.735 0.001-1.331 0.597-1.332 1.332v5.332c0 1.060 0.422 2.078 1.172 2.828s1.768 1.172 2.828 1.172h18.664c1.060 0 2.078-0.422 2.828-1.172s1.172-1.768 1.172-2.828v-5.332c-0.001-0.735-0.597-1.331-1.332-1.332h-0c-0.735 0.001-1.331 0.597-1.332 1.332v5.332c0 0.354-0.14 0.695-0.391 0.945s-0.591 0.391-0.945 0.391h-18.664c-0.354 0-0.695-0.14-0.945-0.391s-0.391-0.591-0.391-0.945v-5.332c-0.001-0.735-0.597-1.331-1.332-1.332h-0z"></path>
<path d="M8.391 12.391c-0.242 0.241-0.391 0.575-0.391 0.943s0.149 0.702 0.391 0.943l6.668 6.664c0.241 0.24 0.574 0.389 0.941 0.389s0.7-0.149 0.941-0.389l6.668-6.664c0.242-0.241 0.391-0.575 0.391-0.943s-0.149-0.702-0.391-0.943v0c-0.241-0.242-0.575-0.391-0.943-0.391s-0.702 0.149-0.943 0.391v0l-5.723 5.723-5.723-5.723c-0.241-0.242-0.575-0.391-0.943-0.391s-0.702 0.149-0.943 0.391v0z"></path>
<path d="M16 2.668c-0.735 0.001-1.331 0.597-1.332 1.332v16c0.001 0.735 0.597 1.331 1.332 1.332h0c0.735-0.001 1.331-0.597 1.332-1.332v-16c-0.001-0.735-0.597-1.331-1.332-1.332h-0z"></path>
</svg>
