<!-- Generated by IcoMoon.io -->
<svg version="1.1" xmlns="http://www.w3.org/2000/svg" width="32" height="32" viewBox="0 0 32 32">
<title>flex-layer</title>
<path d="M5.287 4.033c-0.692 0.001-1.253 0.562-1.254 1.254v8.787c0.001 0.692 0.562 1.253 1.254 1.254h8.787c0.692-0.001 1.253-0.562 1.254-1.254v-8.787c-0.001-0.692-0.562-1.253-1.254-1.254h-0zM6.544 6.544h6.272v6.272h-6.272z"></path>
<path d="M19.092 4.033c-0 0-0.001 0-0.002 0-0.693 0-1.255 0.561-1.256 1.254v8.787c0.001 0.693 0.563 1.254 1.256 1.254 0.001 0 0.001 0 0.002 0h8.783c0 0 0.001 0 0.002 0 0.693 0 1.255-0.561 1.256-1.254v-8.787c-0.001-0.693-0.563-1.254-1.256-1.254-0.001 0-0.001 0-0.002 0h0zM20.346 6.544h6.276v6.272h-6.276z"></path>
<path d="M19.092 17.835c-0 0-0.001 0-0.002 0-0.693 0-1.256 0.562-1.256 1.256 0 0.001 0 0.001 0 0.002v-0 8.783c0 0 0 0.001 0 0.002 0 0.693 0.562 1.256 1.256 1.256 0.001 0 0.001 0 0.002 0h8.783c0 0 0.001 0 0.002 0 0.693 0 1.256-0.562 1.256-1.256 0-0.001 0-0.001 0-0.002v0-8.783c0-0 0-0.001 0-0.002 0-0.693-0.562-1.256-1.256-1.256-0.001 0-0.001 0-0.002 0h0zM20.346 20.346h6.276v6.276h-6.276z"></path>
<path d="M5.287 17.835c-0.693 0.001-1.254 0.563-1.254 1.256 0 0.001 0 0.001 0 0.002v-0 8.783c0 0 0 0.001 0 0.002 0 0.693 0.561 1.255 1.254 1.256h8.787c0.693-0.001 1.254-0.563 1.254-1.256 0-0.001 0-0.001 0-0.002v0-8.783c0-0 0-0.001 0-0.002 0-0.693-0.561-1.255-1.254-1.256h-0zM6.544 20.346h6.272v6.276h-6.272z"></path>
</svg>
