<!-- Generated by IcoMoon.io -->
<svg version="1.1" xmlns="http://www.w3.org/2000/svg" width="34" height="32" viewBox="0 0 34 32">
<title>globe</title>
<path d="M17 1.668c-7.904 0-14.332 6.428-14.332 14.332s6.428 14.332 14.332 14.332c7.904 0 14.332-6.428 14.332-14.332s-6.428-14.332-14.332-14.332zM17 3.668c6.823 0 12.332 5.509 12.332 12.332s-5.509 12.332-12.332 12.332c-6.823 0-12.332-5.509-12.332-12.332s5.509-12.332 12.332-12.332z"></path>
<path d="M3.668 15c-0.552 0-1 0.448-1 1v0c0 0.552 0.448 1 1 1v0h26.664c0.552 0 1-0.448 1-1v0c0-0.552-0.448-1-1-1v0z"></path>
<path d="M17 1.668c-0 0-0.001 0-0.001 0-0.291 0-0.554 0.125-0.736 0.324l-0.001 0.001c-3.498 3.83-5.486 8.802-5.594 13.988-0 0.006-0 0.013-0 0.020s0 0.014 0 0.021l-0-0.001c0.108 5.186 2.095 10.159 5.594 13.988 0.183 0.2 0.446 0.325 0.738 0.325s0.555-0.125 0.738-0.325l0.001-0.001c3.498-3.83 5.486-8.802 5.594-13.988 0-0.006 0-0.013 0-0.020s-0-0.014-0-0.021l0 0.001c-0.108-5.186-2.096-10.158-5.594-13.988-0.183-0.2-0.446-0.324-0.737-0.324-0 0-0.001 0-0.001 0h0zM17 4.516c2.601 3.298 4.236 7.26 4.328 11.484-0.092 4.224-1.727 8.186-4.328 11.484-2.601-3.298-4.236-7.26-4.328-11.484 0.092-4.224 1.727-8.186 4.328-11.484z"></path>
</svg>
