<!-- Generated by IcoMoon.io -->
<svg version="1.1" xmlns="http://www.w3.org/2000/svg" width="32" height="32" viewBox="0 0 32 32">
<title>grid-layer</title>
<path d="M5.173 14.147c-0.693 0.001-1.254 0.563-1.254 1.255 0 0.001 0 0.001 0 0.002v-0c0.001 0.692 0.562 1.253 1.254 1.254h22.588c0.692-0.001 1.253-0.562 1.254-1.254v-0c0-0.001 0-0.001 0-0.002 0-0.693-0.561-1.254-1.254-1.255h-0z"></path>
<path d="M5.173 6.618c-0.693 0.001-1.254 0.563-1.254 1.255 0 0.001 0 0.001 0 0.002v-0c0.001 0.692 0.562 1.253 1.254 1.254h22.588c0.692-0.001 1.253-0.562 1.254-1.254v-0c0-0.001 0-0.001 0-0.002 0-0.693-0.561-1.254-1.254-1.255h-0z"></path>
<path d="M5.173 21.676c-0.693 0.001-1.254 0.563-1.254 1.256 0 0.001 0 0.001 0 0.002v-0c0.001 0.692 0.562 1.253 1.254 1.254h22.588c0.692-0.001 1.253-0.562 1.254-1.254v-0c0-0.001 0-0.001 0-0.002 0-0.693-0.561-1.254-1.254-1.256h-0z"></path>
</svg>
