<!-- Generated by IcoMoon.io -->
<svg version="1.1" xmlns="http://www.w3.org/2000/svg" width="30" height="32" viewBox="0 0 30 32">
<title>hash</title>
<path d="M5.018 11.294c-0.52 0-0.941 0.421-0.941 0.941v0c0 0.52 0.421 0.941 0.941 0.941v0h20.081c0.52 0 0.941-0.421 0.941-0.941v0c0-0.52-0.421-0.941-0.941-0.941v0z"></path>
<path d="M5.018 18.824c-0.52 0-0.941 0.421-0.941 0.941v0c0 0.52 0.421 0.941 0.941 0.941v0h20.081c0.52 0 0.941-0.421 0.941-0.941v0c0-0.52-0.421-0.941-0.941-0.941v0z"></path>
<path d="M12.654 3.772c-0.032-0.004-0.068-0.006-0.105-0.006-0.483 0-0.881 0.364-0.935 0.832l-0 0.004-2.511 22.588c-0.004 0.030-0.005 0.066-0.005 0.101 0 0.483 0.364 0.881 0.832 0.935l0.004 0c0.032 0.004 0.068 0.006 0.105 0.006 0.483 0 0.881-0.364 0.935-0.832l0-0.004 2.511-22.588c0.004-0.030 0.005-0.066 0.005-0.101 0-0.483-0.364-0.881-0.832-0.935l-0.004-0z"></path>
<path d="M20.184 3.772c-0.032-0.004-0.068-0.006-0.105-0.006-0.483 0-0.881 0.364-0.935 0.832l-0 0.004-2.511 22.588c-0.003 0.030-0.005 0.066-0.005 0.101 0 0.483 0.364 0.881 0.832 0.935l0.004 0c0.032 0.004 0.068 0.006 0.105 0.006 0.483 0 0.881-0.364 0.935-0.832l0-0.004 2.511-22.588c0.003-0.030 0.005-0.066 0.005-0.101 0-0.483-0.364-0.881-0.832-0.935l-0.004-0z"></path>
</svg>
