<!-- Generated by IcoMoon.io -->
<svg version="1.1" xmlns="http://www.w3.org/2000/svg" width="33" height="32" viewBox="0 0 33 32">
<title>person-page</title>
<path d="M1.942 0.006l10.844-0.006 0.394 0.181c0.213 0.1 0.475 0.262 0.581 0.356 0.113 0.1 0.781 0.862 2.775 3.212l14.219 0.031 0.4 0.219c0.219 0.119 0.494 0.331 0.606 0.469s0.275 0.412 0.525 0.969l-0.031 16.969-0.138 0.3c-0.081 0.163-0.275 0.438-0.438 0.613-0.169 0.175-0.456 0.394-0.644 0.481-0.337 0.163-0.375 0.169-1.781 0.194-1.431 0.019-1.438 0.019-1.613-0.125-0.144-0.119-0.181-0.2-0.181-0.4 0-0.194 0.038-0.281 0.163-0.387 0.156-0.137 0.206-0.144 1.444-0.144 0.756 0 1.35-0.025 1.456-0.069 0.094-0.031 0.25-0.137 0.35-0.231s0.219-0.262 0.262-0.369c0.075-0.175 0.087-1.581 0.087-16.613l-0.144-0.275c-0.075-0.15-0.231-0.331-0.575-0.537l-12.825-0.031c-12.725-0.031-12.831-0.031-12.95-0.156-0.069-0.069-0.144-0.206-0.169-0.313-0.031-0.144 0-0.231 0.287-0.594h5.094c3.356 0 5.094-0.019 5.094-0.063 0-0.031-0.419-0.55-0.931-1.138-0.506-0.594-0.994-1.144-1.075-1.219s-0.225-0.163-0.325-0.2c-0.113-0.050-1.825-0.069-5.325-0.069-4.237 0-5.194 0.012-5.362 0.087-0.106 0.044-0.275 0.163-0.369 0.262s-0.2 0.256-0.231 0.356c-0.050 0.119-0.069 3.269-0.069 10.231s0.019 10.113 0.069 10.238c0.031 0.094 0.137 0.25 0.231 0.35s0.262 0.219 0.369 0.262c0.163 0.069 0.769 0.087 3.019 0.087 2.125 0 2.85 0.019 2.969 0.081 0.088 0.038 0.181 0.137 0.219 0.219 0.031 0.075 0.063 0.194 0.063 0.262s-0.088 0.212-0.375 0.5l-6.031-0.031-0.344-0.169c-0.212-0.1-0.469-0.306-0.675-0.531-0.2-0.219-0.381-0.494-0.456-0.688-0.119-0.325-0.119-0.594-0.087-20.988l0.138-0.294c0.081-0.169 0.275-0.444 0.437-0.619 0.175-0.188 0.456-0.394 0.675-0.5l0.375-0.175zM16.473 8.031c0.788 0.019 1.25 0.063 1.656 0.156 0.306 0.069 0.813 0.213 1.125 0.319 0.306 0.106 0.856 0.35 1.219 0.537s0.869 0.494 1.125 0.681c0.256 0.188 0.706 0.575 1 0.856 0.294 0.287 0.719 0.775 0.95 1.081 0.231 0.313 0.575 0.856 0.762 1.219s0.425 0.906 0.538 1.219c0.106 0.306 0.256 0.844 0.325 1.188 0.113 0.512 0.137 0.831 0.137 1.781s-0.025 1.269-0.137 1.781c-0.069 0.344-0.219 0.875-0.331 1.188-0.106 0.306-0.331 0.831-0.806 1.75l3.212 3.219c2.587 2.587 3.244 3.288 3.387 3.563 0.131 0.262 0.175 0.456 0.2 0.844 0.019 0.413 0 0.569-0.119 0.875-0.1 0.269-0.238 0.475-0.488 0.725-0.25 0.244-0.456 0.387-0.725 0.488-0.206 0.081-0.488 0.156-0.625 0.175-0.144 0.019-0.406-0.012-0.625-0.075-0.206-0.056-0.475-0.163-0.594-0.238-0.119-0.069-1.669-1.569-6.656-6.544l-0.594 0.306c-0.325 0.169-0.85 0.394-1.156 0.5-0.313 0.113-0.831 0.256-1.156 0.325s-0.975 0.137-1.438 0.163c-0.5 0.019-1.088 0.006-1.438-0.038-0.325-0.044-0.863-0.144-1.188-0.225s-0.875-0.262-1.219-0.406c-0.344-0.137-0.85-0.387-1.125-0.55s-0.738-0.481-1.031-0.706c-0.294-0.225-0.713-0.606-0.938-0.844s-0.55-0.631-0.731-0.869c-0.181-0.244-0.438-0.637-0.581-0.875-0.137-0.244-0.344-0.663-0.463-0.938s-0.294-0.756-0.381-1.063c-0.088-0.313-0.206-0.844-0.263-1.188-0.069-0.462-0.088-0.894-0.069-1.656 0.025-0.725 0.075-1.2 0.162-1.594 0.075-0.313 0.219-0.819 0.331-1.125 0.106-0.313 0.3-0.775 0.431-1.031s0.412-0.738 0.631-1.063c0.244-0.369 0.662-0.856 1.088-1.281 0.425-0.431 0.925-0.85 1.313-1.106 0.344-0.231 0.894-0.544 1.219-0.694 0.325-0.156 0.831-0.356 1.125-0.45 0.294-0.088 0.825-0.219 1.188-0.287 0.537-0.094 0.856-0.113 1.75-0.094zM14.017 9.406c-0.3 0.088-0.775 0.269-1.063 0.4-0.281 0.131-0.769 0.4-1.075 0.6-0.35 0.225-0.813 0.619-1.225 1.031-0.4 0.394-0.806 0.875-1.012 1.194-0.188 0.294-0.431 0.713-0.544 0.938s-0.294 0.688-0.412 1.031c-0.113 0.344-0.25 0.919-0.3 1.281-0.056 0.362-0.1 0.894-0.1 1.188s0.044 0.825 0.1 1.188c0.050 0.363 0.194 0.95 0.313 1.313 0.125 0.363 0.35 0.906 0.512 1.219 0.162 0.306 0.45 0.775 0.644 1.031s0.544 0.663 0.781 0.9c0.238 0.238 0.644 0.587 0.9 0.781s0.75 0.494 1.094 0.675c0.344 0.175 0.838 0.387 1.094 0.475s0.706 0.206 1 0.269c0.394 0.087 0.8 0.119 1.563 0.119 0.769 0 1.163-0.031 1.563-0.119 0.294-0.063 0.756-0.194 1.031-0.288s0.769-0.306 1.094-0.475c0.325-0.169 0.806-0.462 1.063-0.656 0.256-0.188 0.663-0.544 0.9-0.781 0.244-0.238 0.594-0.644 0.788-0.9 0.188-0.256 0.475-0.725 0.637-1.031 0.156-0.313 0.369-0.8 0.475-1.094 0.1-0.294 0.238-0.769 0.3-1.063 0.087-0.394 0.113-0.8 0.113-1.563s-0.025-1.169-0.113-1.563c-0.063-0.294-0.2-0.769-0.3-1.063-0.106-0.294-0.288-0.731-0.413-0.969-0.119-0.244-0.356-0.65-0.531-0.906s-0.613-0.769-0.975-1.131c-0.413-0.419-0.875-0.8-1.225-1.031-0.313-0.2-0.788-0.469-1.063-0.594-0.275-0.131-0.756-0.313-1.063-0.4-0.313-0.088-0.831-0.206-1.156-0.256-0.325-0.044-0.863-0.088-1.188-0.081-0.325 0-0.831 0.044-1.125 0.088-0.294 0.050-0.775 0.156-1.081 0.244zM22.567 23.613c-0.106 0.087-0.3 0.256-0.438 0.375l-0.25 0.219c5.106 5.106 6.206 6.162 6.375 6.244 0.137 0.063 0.356 0.119 0.481 0.119 0.131 0 0.35-0.056 0.488-0.125s0.313-0.219 0.387-0.331c0.081-0.119 0.15-0.331 0.163-0.512 0.019-0.212-0.006-0.381-0.081-0.531-0.056-0.119-1.488-1.606-3.181-3.3-1.688-1.694-3.081-3.075-3.1-3.075s-0.175 0.169-0.344 0.381c-0.175 0.206-0.4 0.45-0.5 0.538zM29.786 5.881l0.375 0.375v2.438l-0.181 0.188c-0.125 0.125-0.244 0.188-0.375 0.188-0.125 0-0.25-0.056-0.35-0.156-0.15-0.15-0.156-0.181-0.156-1.969h-0.844c-0.587 0-0.894-0.025-1.019-0.088-0.094-0.044-0.188-0.131-0.219-0.188-0.025-0.056-0.044-0.188-0.044-0.294 0.006-0.112 0.069-0.25 0.156-0.344 0.15-0.15 0.156-0.15 2.656-0.15zM16.223 10.137c0.325-0.006 0.844 0.037 1.156 0.088 0.306 0.050 0.788 0.169 1.063 0.256 0.275 0.094 0.694 0.262 0.938 0.381 0.238 0.125 0.606 0.338 0.813 0.475s0.625 0.494 0.925 0.787c0.306 0.294 0.688 0.731 0.856 0.975 0.163 0.238 0.413 0.675 0.556 0.969 0.137 0.294 0.319 0.769 0.406 1.063 0.081 0.294 0.181 0.75 0.219 1.012 0.038 0.269 0.069 0.675 0.069 0.906 0 0.238-0.044 0.706-0.094 1.050-0.056 0.344-0.181 0.875-0.288 1.188-0.106 0.306-0.3 0.775-0.438 1.031s-0.4 0.663-0.587 0.906c-0.181 0.238-0.538 0.631-0.788 0.875-0.256 0.238-0.663 0.569-0.9 0.725-0.244 0.156-0.581 0.356-0.75 0.444-0.175 0.087-0.55 0.244-0.844 0.344-0.294 0.106-0.731 0.225-0.969 0.275-0.244 0.050-0.813 0.087-1.281 0.087s-1.037-0.038-1.281-0.087c-0.244-0.050-0.675-0.169-0.969-0.269-0.294-0.106-0.744-0.3-1-0.438s-0.65-0.387-0.875-0.55c-0.225-0.163-0.619-0.519-0.875-0.794-0.256-0.269-0.6-0.688-0.762-0.925-0.162-0.244-0.387-0.65-0.512-0.906-0.119-0.256-0.287-0.706-0.369-1-0.088-0.294-0.188-0.75-0.225-1.019-0.037-0.262-0.069-0.681-0.069-0.919 0-0.244 0.031-0.656 0.069-0.925 0.037-0.262 0.137-0.719 0.219-1.012 0.088-0.294 0.269-0.769 0.406-1.063 0.144-0.294 0.394-0.731 0.556-0.969 0.169-0.244 0.55-0.681 0.856-0.975 0.3-0.294 0.719-0.65 0.925-0.787 0.206-0.144 0.613-0.375 0.906-0.512 0.294-0.144 0.725-0.319 0.969-0.394 0.238-0.069 0.65-0.162 0.906-0.206s0.738-0.088 1.063-0.088zM14.63 11.45c-0.244 0.069-0.606 0.206-0.813 0.3s-0.556 0.294-0.781 0.444c-0.225 0.15-0.6 0.456-0.831 0.681-0.238 0.225-0.594 0.65-0.787 0.944-0.2 0.294-0.45 0.762-0.556 1.044-0.113 0.287-0.25 0.706-0.306 0.938-0.069 0.294-0.106 0.687-0.106 1.269s0.037 0.975 0.106 1.262c0.056 0.238 0.194 0.656 0.306 0.938 0.106 0.288 0.363 0.756 0.556 1.050 0.2 0.294 0.531 0.7 0.738 0.906l0.381 0.375c0-0.363 0.044-0.688 0.094-0.956 0.056-0.262 0.2-0.694 0.325-0.95 0.169-0.363 0.344-0.587 0.744-0.988l0.525-0.512c-0.231-0.313-0.344-0.519-0.4-0.656s-0.131-0.419-0.169-0.625c-0.044-0.269-0.044-0.494 0.006-0.781 0.037-0.225 0.15-0.575 0.25-0.781 0.106-0.231 0.313-0.5 0.525-0.706 0.194-0.175 0.537-0.419 0.769-0.531 0.4-0.188 0.469-0.2 1.088-0.2 0.631 0 0.675 0.006 1.125 0.231 0.288 0.137 0.569 0.338 0.75 0.531 0.156 0.162 0.356 0.425 0.45 0.581s0.212 0.494 0.262 0.75c0.069 0.3 0.087 0.581 0.063 0.781-0.025 0.169-0.094 0.45-0.15 0.625-0.063 0.169-0.181 0.419-0.275 0.544l-0.169 0.238c0.938 0.919 1.094 1.131 1.262 1.5 0.125 0.256 0.25 0.594 0.288 0.75s0.087 0.475 0.106 0.719l0.044 0.438c0.581-0.581 0.906-0.988 1.106-1.281 0.194-0.294 0.45-0.762 0.556-1.050 0.113-0.281 0.25-0.7 0.306-0.938 0.069-0.288 0.106-0.681 0.106-1.262s-0.038-0.975-0.106-1.269c-0.056-0.231-0.194-0.65-0.306-0.938-0.106-0.281-0.356-0.75-0.556-1.044-0.194-0.294-0.55-0.719-0.788-0.944-0.231-0.225-0.65-0.563-0.925-0.738-0.275-0.181-0.719-0.406-0.988-0.512-0.262-0.1-0.656-0.225-0.875-0.275-0.212-0.056-0.7-0.106-1.075-0.125-0.381-0.012-0.856 0-1.063 0.031s-0.575 0.119-0.813 0.194zM15.348 15.244c-0.088 0.063-0.244 0.225-0.35 0.363-0.113 0.144-0.225 0.387-0.269 0.588-0.056 0.256-0.056 0.419-0.006 0.656 0.037 0.169 0.125 0.394 0.188 0.5 0.063 0.1 0.194 0.262 0.294 0.356 0.094 0.094 0.3 0.225 0.456 0.294 0.175 0.081 0.413 0.131 0.625 0.131 0.231 0 0.45-0.050 0.656-0.15 0.169-0.075 0.406-0.25 0.525-0.387 0.119-0.131 0.256-0.344 0.306-0.462s0.087-0.387 0.087-0.594c0-0.206-0.038-0.475-0.087-0.594s-0.188-0.331-0.306-0.463c-0.119-0.131-0.325-0.3-0.462-0.369s-0.419-0.137-0.625-0.15c-0.238-0.012-0.469 0.012-0.625 0.075-0.137 0.050-0.319 0.144-0.406 0.206zM14.298 19.587c-0.144 0.163-0.325 0.413-0.394 0.556-0.075 0.15-0.175 0.45-0.219 0.675-0.050 0.225-0.088 0.631-0.088 0.906-0.004 0.333 0.021 0.525 0.075 0.575 0.044 0.044 0.313 0.163 0.594 0.262 0.287 0.106 0.762 0.238 1.063 0.288 0.306 0.050 0.731 0.094 0.956 0.094s0.65-0.044 0.95-0.094c0.306-0.050 0.781-0.181 1.063-0.288 0.288-0.1 0.556-0.219 0.6-0.262 0.054-0.050 0.079-0.242 0.075-0.575 0-0.275-0.038-0.681-0.087-0.906-0.044-0.225-0.15-0.531-0.225-0.688-0.081-0.156-0.275-0.419-0.431-0.587-0.156-0.163-0.4-0.369-0.538-0.45l-0.25-0.144c-0.606 0.188-0.95 0.244-1.156 0.244s-0.55-0.056-0.756-0.125c-0.213-0.069-0.387-0.125-0.394-0.125s-0.131 0.081-0.287 0.175c-0.156 0.1-0.4 0.313-0.55 0.469z"></path>
</svg>
