<!-- Generated by IcoMoon.io -->
<svg version="1.1" xmlns="http://www.w3.org/2000/svg" width="33" height="32" viewBox="0 0 33 32">
<title>security-page</title>
<path d="M14.054 0.006c0.794-0.006 1.113 0.019 1.781 0.15 0.45 0.081 1.106 0.256 1.469 0.381 0.363 0.119 0.95 0.375 1.313 0.563s0.919 0.531 1.244 0.762c0.325 0.231 0.844 0.675 1.156 0.988 0.313 0.306 0.738 0.788 0.944 1.063 0.206 0.269 0.519 0.744 0.706 1.056 0.181 0.313 0.438 0.844 0.575 1.188 0.131 0.344 0.3 0.838 0.375 1.094 0.069 0.256 0.169 0.725 0.219 1.031s0.113 1.106 0.188 2.969h0.344c0.188 0 0.488 0.037 0.656 0.088 0.175 0.050 0.462 0.206 0.644 0.344 0.256 0.2 0.375 0.363 0.794 1.219l0.031 7.225 1.894 1.006c1.038 0.556 2 1.087 2.137 1.181 0.15 0.1 0.313 0.288 0.406 0.475 0.113 0.225 0.163 0.431 0.175 0.775 0.012 0.262-0.019 0.744-0.075 1.094-0.063 0.344-0.181 0.894-0.269 1.219s-0.244 0.806-0.344 1.063c-0.1 0.256-0.325 0.738-0.488 1.063-0.169 0.325-0.475 0.85-0.675 1.156-0.206 0.306-0.569 0.788-0.806 1.063s-0.656 0.681-0.938 0.906c-0.275 0.225-0.694 0.512-0.931 0.644-0.331 0.181-0.5 0.238-0.731 0.231-0.219 0-0.387-0.056-0.688-0.225-0.212-0.125-0.475-0.281-0.575-0.356-0.1-0.069-0.369-0.288-0.587-0.475-0.225-0.194-0.575-0.556-1.163-1.256h-9.656c-8.425 0-9.7-0.012-9.988-0.094-0.225-0.063-0.425-0.188-0.65-0.4-0.188-0.169-0.413-0.462-0.706-1.038l-0.038-2.25c-0.025-1.238-0.025-2.544-0.012-2.906 0.031-0.6 0.050-0.669 0.2-0.831 0.125-0.131 0.219-0.169 0.412-0.169 0.138 0 0.294 0.038 0.344 0.081s0.138 0.131 0.188 0.194c0.081 0.1 0.1 0.55 0.125 2.875 0.031 2.731 0.031 2.756 0.175 2.962 0.075 0.106 0.206 0.231 0.294 0.262 0.1 0.044 3.356 0.063 9.313 0.063 5.037 0 9.156-0.012 9.156-0.031s-0.144-0.319-0.319-0.669c-0.175-0.356-0.413-0.925-0.531-1.269-0.113-0.344-0.262-0.919-0.337-1.281-0.087-0.419-0.137-0.919-0.144-1.375-0.006-0.644 0.012-0.75 0.15-1.025 0.094-0.194 0.244-0.369 0.4-0.475 0.137-0.094 1.1-0.631 4.038-2.219l-0.006-3.406c0-3.169-0.012-3.425-0.119-3.656-0.063-0.137-0.175-0.306-0.256-0.375-0.137-0.125-0.238-0.125-10.662-0.137-9.25-0.019-10.55-0.006-10.713 0.075-0.106 0.050-0.244 0.206-0.313 0.344-0.119 0.231-0.125 0.375-0.125 2.175 0 1.7-0.013 1.944-0.112 2.137-0.056 0.119-0.188 0.256-0.294 0.306-0.112 0.050-0.269 0.069-0.388 0.044-0.119-0.019-0.262-0.113-0.337-0.206-0.125-0.169-0.125-0.238-0.087-4.55l0.175-0.375c0.094-0.206 0.281-0.481 0.406-0.613s0.375-0.313 0.544-0.4c0.225-0.119 0.456-0.169 1.344-0.238v-0.981c0-0.544 0.044-1.306 0.094-1.688 0.050-0.387 0.162-0.975 0.25-1.3 0.094-0.325 0.287-0.888 0.444-1.25 0.15-0.362 0.412-0.875 0.575-1.138 0.162-0.269 0.419-0.662 0.575-0.875 0.156-0.219 0.594-0.7 0.969-1.081 0.381-0.375 0.863-0.813 1.081-0.969 0.213-0.156 0.606-0.413 0.875-0.575 0.262-0.163 0.775-0.425 1.137-0.575 0.363-0.156 0.925-0.35 1.25-0.438 0.325-0.081 0.806-0.194 1.063-0.244 0.269-0.050 0.887-0.094 1.438-0.1zM12.023 1.538c-0.344 0.087-0.863 0.256-1.156 0.381-0.294 0.119-0.713 0.319-0.938 0.444s-0.631 0.394-0.906 0.6c-0.275 0.206-0.7 0.569-0.944 0.813s-0.619 0.681-0.831 0.975c-0.219 0.294-0.513 0.756-0.662 1.031s-0.369 0.769-0.487 1.094c-0.125 0.325-0.281 0.875-0.356 1.219-0.094 0.45-0.144 0.975-0.175 1.894l-0.044 1.262h1.781c0.044-2.319 0.063-2.544 0.213-3.094 0.088-0.344 0.281-0.875 0.431-1.188 0.15-0.306 0.394-0.744 0.544-0.969 0.156-0.225 0.469-0.612 0.7-0.862s0.613-0.6 0.844-0.769c0.231-0.175 0.738-0.462 1.113-0.65 0.412-0.206 0.938-0.406 1.313-0.506 0.363-0.087 0.9-0.175 1.281-0.194 0.406-0.025 0.887-0.006 1.25 0.044 0.325 0.044 0.762 0.125 0.969 0.188 0.206 0.056 0.6 0.2 0.875 0.319 0.275 0.112 0.756 0.375 1.063 0.581 0.313 0.206 0.775 0.588 1.031 0.85 0.262 0.256 0.606 0.65 0.762 0.875s0.4 0.631 0.538 0.906c0.137 0.275 0.306 0.669 0.375 0.875s0.175 0.6 0.231 0.875c0.056 0.281 0.125 0.988 0.144 1.613l0.044 1.106h1.656c0-1.75-0.038-2.444-0.087-2.75-0.044-0.294-0.15-0.756-0.225-1.031s-0.256-0.769-0.4-1.094c-0.144-0.325-0.45-0.881-0.681-1.231-0.231-0.356-0.663-0.9-0.962-1.212-0.306-0.313-0.788-0.75-1.081-0.969-0.294-0.225-0.869-0.569-1.281-0.775s-0.931-0.431-1.156-0.506c-0.225-0.069-0.675-0.188-1-0.25s-0.956-0.131-1.406-0.144c-0.444-0.019-1.025-0.006-1.281 0.025-0.256 0.038-0.75 0.131-1.094 0.225zM12.429 4.531c-0.188 0.063-0.581 0.231-0.875 0.381s-0.719 0.425-0.95 0.619c-0.238 0.188-0.563 0.506-0.725 0.706-0.162 0.194-0.4 0.525-0.519 0.731-0.125 0.206-0.294 0.556-0.387 0.781-0.088 0.225-0.206 0.588-0.262 0.813-0.075 0.275-0.113 0.769-0.131 1.55l-0.025 1.137h11.125c0-1.938-0.025-2.262-0.125-2.669-0.069-0.287-0.2-0.694-0.288-0.906-0.087-0.219-0.313-0.619-0.494-0.894s-0.494-0.662-0.694-0.869c-0.2-0.2-0.538-0.487-0.744-0.638-0.206-0.144-0.6-0.369-0.875-0.5-0.275-0.125-0.713-0.281-0.969-0.35-0.256-0.063-0.775-0.131-1.156-0.144-0.431-0.019-0.85 0-1.125 0.056-0.238 0.044-0.594 0.131-0.781 0.194zM21.966 23.319c-0.031 0.806 0 1.25 0.056 1.556 0.056 0.294 0.194 0.813 0.306 1.156 0.119 0.344 0.356 0.919 0.538 1.281s0.488 0.894 0.681 1.188c0.2 0.306 0.637 0.819 1.038 1.219 0.381 0.387 0.819 0.762 0.988 0.844l0.294 0.156c0.462-0.238 0.894-0.606 1.256-0.969 0.4-0.4 0.813-0.887 1.050-1.25 0.219-0.325 0.538-0.875 0.706-1.219 0.175-0.344 0.406-0.906 0.525-1.25 0.113-0.344 0.25-0.881 0.306-1.188 0.050-0.306 0.1-0.775 0.113-1.044l0.012-0.475c-3.044-1.631-3.944-2.113-3.962-2.113-0.019-0.006-0.906 0.462-1.975 1.050l-1.931 1.056zM9.654 14.819c0.206-0.006 0.556 0.037 0.781 0.088 0.219 0.056 0.569 0.188 0.775 0.3 0.2 0.106 0.525 0.356 0.719 0.55 0.188 0.194 0.438 0.512 0.544 0.719 0.113 0.2 0.244 0.538 0.3 0.744s0.1 0.569 0.094 0.813c0 0.238-0.037 0.587-0.088 0.781-0.056 0.188-0.162 0.481-0.244 0.656-0.088 0.169-0.3 0.475-0.787 1.031l0.481 0.331c0.269 0.181 0.637 0.5 0.819 0.706 0.181 0.2 0.444 0.55 0.575 0.775 0.137 0.219 0.319 0.631 0.412 0.906 0.1 0.319 0.175 0.7 0.194 1.063 0.025 0.469 0.012 0.606-0.088 0.844-0.069 0.15-0.194 0.363-0.281 0.469-0.088 0.1-0.306 0.262-0.831 0.531l-6.688-0.006-0.313-0.144c-0.175-0.081-0.412-0.256-0.531-0.387-0.112-0.137-0.256-0.344-0.306-0.462-0.056-0.137-0.094-0.4-0.094-0.688 0.006-0.262 0.050-0.656 0.106-0.875 0.056-0.225 0.225-0.663 0.381-0.969 0.2-0.413 0.394-0.7 0.731-1.056 0.25-0.269 0.65-0.613 1.306-1.038l-0.287-0.3c-0.156-0.163-0.375-0.481-0.494-0.7-0.119-0.225-0.244-0.55-0.281-0.719-0.044-0.175-0.075-0.538-0.069-0.813 0-0.319 0.044-0.65 0.125-0.906 0.063-0.225 0.244-0.587 0.388-0.813 0.15-0.219 0.4-0.512 0.556-0.644 0.15-0.137 0.438-0.325 0.638-0.425s0.519-0.225 0.719-0.269c0.2-0.050 0.531-0.094 0.738-0.094zM8.716 16.325c-0.106 0.050-0.325 0.244-0.488 0.431-0.169 0.181-0.344 0.462-0.394 0.619-0.050 0.15-0.094 0.462-0.094 0.688 0.006 0.319 0.044 0.488 0.181 0.781 0.1 0.206 0.275 0.462 0.394 0.575 0.113 0.106 0.381 0.275 0.588 0.363 0.294 0.137 0.463 0.169 0.813 0.169 0.363-0.006 0.5-0.038 0.838-0.212 0.287-0.144 0.475-0.3 0.644-0.519 0.131-0.175 0.281-0.469 0.338-0.656 0.063-0.219 0.088-0.469 0.069-0.688-0.019-0.194-0.081-0.475-0.15-0.625-0.069-0.156-0.231-0.406-0.369-0.556s-0.387-0.337-0.556-0.425c-0.2-0.094-0.463-0.163-0.719-0.181-0.25-0.012-0.506 0.006-0.656 0.056-0.137 0.044-0.338 0.125-0.438 0.181zM8.341 21.563c-0.206 0.1-0.525 0.3-0.7 0.45-0.175 0.144-0.425 0.394-0.556 0.55-0.125 0.15-0.294 0.406-0.375 0.563-0.075 0.15-0.188 0.431-0.237 0.625-0.056 0.188-0.106 0.488-0.106 0.669 0.006 0.269 0.025 0.344 0.131 0.394 0.075 0.038 1.275 0.063 3.2 0.063 2.875 0 3.088-0.006 3.188-0.106 0.063-0.069 0.106-0.212 0.106-0.363 0-0.137-0.037-0.394-0.081-0.563-0.044-0.175-0.175-0.5-0.287-0.719-0.131-0.256-0.369-0.569-0.65-0.85s-0.594-0.525-0.85-0.65c-0.225-0.119-0.55-0.244-0.719-0.294-0.175-0.044-0.512-0.081-0.75-0.075-0.244 0-0.55 0.031-0.688 0.063s-0.419 0.144-0.625 0.244zM18.448 16.688c2.219 0 2.962 0.019 3.087 0.075 0.087 0.044 0.2 0.156 0.25 0.25 0.044 0.094 0.087 0.231 0.087 0.3s-0.044 0.2-0.087 0.294c-0.050 0.094-0.163 0.206-0.25 0.25-0.125 0.063-0.887 0.081-6.1 0.081l-0.188-0.188c-0.144-0.144-0.188-0.25-0.194-0.425 0-0.125 0.050-0.3 0.106-0.381 0.050-0.075 0.156-0.169 0.231-0.194 0.075-0.031 1.45-0.056 3.056-0.063zM2.404 19.188c0.15 0 0.281 0.056 0.419 0.181 0.156 0.137 0.206 0.231 0.206 0.4 0 0.119-0.056 0.294-0.125 0.387s-0.212 0.2-0.313 0.231c-0.106 0.031-0.256 0.044-0.331 0.025-0.075-0.025-0.212-0.113-0.294-0.194-0.119-0.119-0.163-0.225-0.163-0.431-0.006-0.238 0.025-0.3 0.194-0.438 0.125-0.106 0.269-0.163 0.406-0.163zM15.423 20.063h4.325l0.188 0.188c0.144 0.144 0.188 0.244 0.188 0.438 0 0.175-0.050 0.3-0.306 0.594h-4.456l-0.15-0.175c-0.113-0.125-0.15-0.244-0.15-0.425 0.006-0.194 0.050-0.3 0.188-0.438l0.175-0.181zM27.829 24.194c0.106 0.031 0.25 0.113 0.319 0.181 0.087 0.087 0.125 0.212 0.125 0.4 0 0.262-0.025 0.3-0.819 1.137-0.456 0.475-1.038 1.075-1.3 1.319-0.394 0.375-0.506 0.456-0.675 0.456-0.113-0.006-0.269-0.038-0.337-0.081-0.075-0.044-0.4-0.331-0.731-0.637-0.387-0.369-0.606-0.625-0.637-0.75-0.025-0.106-0.025-0.25-0.006-0.331 0.019-0.075 0.094-0.194 0.163-0.262s0.2-0.144 0.3-0.163c0.094-0.025 0.238-0.019 0.325 0.006s0.313 0.194 0.844 0.712l0.938-0.938c0.519-0.519 1.019-0.981 1.119-1.025 0.119-0.056 0.238-0.063 0.375-0.025z"></path>
</svg>
