<!-- Generated by IcoMoon.io -->
<svg version="1.1" xmlns="http://www.w3.org/2000/svg" width="32" height="32" viewBox="0 0 32 32">
<title>shareNEW</title>
<path d="M24 1.332c-2.93 0-5.332 2.406-5.332 5.336s2.402 5.332 5.332 5.332c2.93 0 5.332-2.402 5.332-5.332s-2.402-5.336-5.332-5.336zM24 4c1.489 0 2.668 1.179 2.668 2.668s-1.179 2.664-2.668 2.664c-1.489 0-2.668-1.175-2.668-2.664s1.179-2.668 2.668-2.668z"></path>
<path d="M8 10.668c-2.93 0-5.332 2.402-5.332 5.332s2.402 5.332 5.332 5.332c2.93 0 5.332-2.402 5.332-5.332s-2.402-5.332-5.332-5.332zM8 13.332c1.489 0 2.668 1.179 2.668 2.668s-1.179 2.668-2.668 2.668c-1.489 0-2.668-1.179-2.668-2.668s1.179-2.668 2.668-2.668z"></path>
<path d="M24 20c-2.93 0-5.332 2.402-5.332 5.332s2.402 5.336 5.332 5.336c2.93 0 5.332-2.406 5.332-5.336s-2.402-5.332-5.332-5.332zM24 22.668c1.489 0 2.668 1.175 2.668 2.664s-1.179 2.668-2.668 2.668c-1.489 0-2.668-1.179-2.668-2.668s1.179-2.664 2.668-2.664z"></path>
<path d="M12.125 16.859c-0.192-0.114-0.423-0.181-0.67-0.181-0.49 0-0.919 0.265-1.15 0.659l-0.003 0.006c-0.113 0.192-0.18 0.423-0.18 0.669 0 0.488 0.263 0.916 0.654 1.148l0.006 0.003 9.105 5.309c0.193 0.114 0.424 0.182 0.672 0.182 0.489 0 0.917-0.263 1.149-0.656l0.003-0.006c0.114-0.193 0.182-0.424 0.182-0.672 0-0.489-0.263-0.917-0.656-1.149l-0.006-0.003z"></path>
<path d="M19.875 7.527l-9.094 5.309c-0.399 0.235-0.662 0.663-0.662 1.152 0 0.248 0.068 0.48 0.185 0.678l-0.003-0.006c0.236 0.397 0.662 0.659 1.15 0.659 0.248 0 0.481-0.068 0.68-0.186l-0.006 0.003 9.094-5.305c0.399-0.235 0.662-0.663 0.662-1.152 0-0.248-0.068-0.48-0.185-0.678l0.003 0.006c-0.235-0.399-0.663-0.662-1.152-0.662-0.248 0-0.48 0.068-0.678 0.185l0.006-0.003z"></path>
</svg>
