<!-- Generated by IcoMoon.io -->
<svg version="1.1" xmlns="http://www.w3.org/2000/svg" width="33" height="32" viewBox="0 0 33 32">
<title>upload</title>
<path d="M4.5 18.666c-0 0-0 0-0.001 0-0.736 0-1.333 0.597-1.333 1.333 0 0 0 0 0 0.001v-0 5.334c0 1.060 0.422 2.078 1.172 2.828s1.768 1.172 2.828 1.172h18.668c1.060 0 2.078-0.422 2.828-1.172s1.172-1.768 1.172-2.828v-5.334c0-0 0-0 0-0.001 0-0.736-0.597-1.333-1.333-1.333-0 0-0 0-0.001 0h0c-0 0-0 0-0.001 0-0.736 0-1.333 0.597-1.333 1.333 0 0 0 0 0 0.001v-0 5.334c0 0.354-0.14 0.691-0.391 0.941s-0.587 0.391-0.941 0.391h-18.668c-0.354 0-0.691-0.14-0.941-0.391s-0.391-0.587-0.391-0.941v-5.334c0-0 0-0 0-0.001 0-0.736-0.597-1.333-1.333-1.333-0 0-0 0-0.001 0h0z"></path>
<path d="M15.557 3.057l-6.666 6.668c-0.241 0.241-0.39 0.574-0.39 0.942s0.149 0.701 0.39 0.942v0c0.241 0.241 0.574 0.39 0.942 0.39s0.701-0.149 0.942-0.39l5.725-5.723 5.725 5.723c0.241 0.241 0.574 0.39 0.942 0.39s0.701-0.149 0.942-0.39v0c0.241-0.241 0.39-0.574 0.39-0.942s-0.149-0.701-0.39-0.942l-6.666-6.668c-0.241-0.242-0.575-0.391-0.943-0.391s-0.702 0.149-0.943 0.391v0z"></path>
<path d="M16.5 2.666c-0 0-0 0-0.001 0-0.736 0-1.333 0.597-1.333 1.333 0 0 0 0 0 0.001v-0 16c0 0 0 0 0 0.001 0 0.736 0.597 1.333 1.333 1.333 0 0 0 0 0.001 0h-0c0 0 0 0 0.001 0 0.736 0 1.333-0.597 1.333-1.333 0-0 0-0 0-0.001v0-16c0-0 0-0 0-0.001 0-0.736-0.597-1.333-1.333-1.333-0 0-0 0-0.001 0h0z"></path>
</svg>
